<svg xmlns="http://www.w3.org/2000/svg" id="icon-vtb" viewBox="0 0 24 24">
	<circle fill="#282828" cx="12" cy="12" r="12"/>
	<path fill="#F3BA2F" d="M7.8,9.14H3.03L3.37,8.2h4.76L7.8,9.14z M7.62,9.62H2.86l-0.34,0.94h4.76L7.62,9.62z M7.11,11.03H2.34L2,11.97h4.76L7.11,11.03z"></path>
	<path fill="#F3BA2F" d="M19.14,14.33H20c0.25,0.03,0.49-0.07,0.66-0.26c0.12-0.15,0.18-0.34,0.17-0.54c0.02-0.25-0.09-0.49-0.29-0.64c-0.16-0.1-0.35-0.15-0.54-0.14h-0.85L19.14,14.33z M18.02,15.28V9.62h3.69l-0.32,0.95h-2.24v1.25h0.91c0.74,0,1.12,0.18,1.38,0.4c0.38,0.34,0.59,0.83,0.56,1.34c0.03,0.55-0.22,1.08-0.67,1.4c-0.35,0.24-0.72,0.31-1.48,0.31L18.02,15.28z M14.75,15.28v-4.72h-1.64V9.62h4.55l-0.32,0.95h-1.45v4.72L14.75,15.28z M10.21,11.88h0.64c0.13,0.01,0.26,0,0.39-0.03c0.28-0.09,0.45-0.36,0.43-0.64c0.04-0.29-0.15-0.56-0.43-0.63c-0.14-0.03-0.28-0.05-0.43-0.04h-0.61V11.88z M10.21,12.86v1.49H11c0.22,0.02,0.43-0.04,0.61-0.17c0.16-0.15,0.25-0.36,0.24-0.58c0-0.17-0.05-0.34-0.15-0.48c-0.17-0.21-0.37-0.26-0.72-0.26L10.21,12.86z M12.03,12.27v0.02c0.19,0.07,0.37,0.18,0.53,0.3c0.33,0.27,0.51,0.68,0.48,1.11c0,0.77-0.41,1.33-1.09,1.5c-0.27,0.07-0.55,0.09-0.82,0.08H9.09V9.62h1.81c0.29-0.01,0.58,0.02,0.86,0.08c0.66,0.18,1.09,0.63,1.09,1.34c0.01,0.34-0.12,0.68-0.36,0.92c-0.13,0.13-0.28,0.23-0.45,0.3L12.03,12.27z"></path>
</svg>