<svg xmlns="http://www.w3.org/2000/svg" id="icon-rocket" viewBox="0 0 40 40">
	<circle fill="#282828" cx="28.4" cy="11.2" r="3.8"></circle>
	<path fill="#F3BA2F" d="M11.2,35.2c0.4,0,0.8-0.1,1.1-0.3c0.7-0.5,1.4-1.1,1.9-1.9c0.1-0.1,0.2-0.2,0.3-0.3c0,0.1,0,0.2-0.1,0.3c-0.6,1.5-1.7,2.8-3.1,3.5c-0.8,0.5-1.6,0.9-2.4,1.3c-0.2,0.1-0.3,0.2-0.5,0.4c0.1-1.3,0.4-2.4,1.6-3.1l-0.1-0.1c-0.2,0.1-0.5,0.3-0.7,0.5c-0.6,0.6-1.1,1.3-1.7,2c-0.5,0.7-1.2,1.2-2,1.5C5,38.9,4.5,39,4,39c-0.1,0-0.1-0.1-0.2-0.1c0.7-0.9,0.8-2,1.1-3c0.4-1.4,1-2.6,2.3-3.5c0,0,0.1-0.1,0.2-0.2c-0.1,0-0.3,0-0.4,0.1c-0.5,0.3-0.9,0.7-1.4,1c-0.3,0.2-0.7,0.4-1.1,0.5c-0.1,0-0.2,0-0.3,0c0.9-1.4,1.7-2.8,2.5-4.1C7.3,28.9,8.1,28.3,9,28c0.1,0,0.1,0,0.2-0.1c0.1,0,0.1,0,0.2,0c-1.2,0.7-1.8,1.8-2.3,3C8,30.5,9,30.4,10,30.6c-1.9,1-2.2,2.8-2.4,4.7c1.3-1.3,3-2.1,4.8-2.1l0.1,0.1L11.2,35.2z"></path>
	<path fill="#F3BA2F" d="M16.4,38.5c0.1-0.6,0.3-1.1,0.4-1.7l1.1-4.6c0.1-0.2,0.1-0.4,0.2-0.7c0-0.1,0.1-0.2,0.2-0.3c1.9-1.1,3.7-2.3,5.3-3.7c0.5-0.4,1-0.9,1.6-1.4c0.1,0.5,0.2,0.9,0.3,1.4c0.1,0.7,0.3,1.4,0.4,2.1c0.1,0.3,0,0.6-0.3,0.8c-1.3,1.1-2.5,2.3-3.8,3.4l-4.6,4.1L16.4,38.5L16.4,38.5z"></path>
	<path fill="#F3BA2F" d="M30.5,3.1c1.4-0.5,2.7-1,4.1-1.5c0.7-0.2,1.3-0.4,2-0.5C36.8,1,37,1,37,1.3c-0.1,1.1-0.2,2.2-0.4,3.3c-0.1,0.9-0.4,1.7-0.6,2.6c0,0.2-0.1,0.3-0.2,0.5l-5.3-4.6V3.1z"></path>
	<path fill="#F3BA2F" d="M35.1,8.6c-1.8-1.5-3.6-3.1-5.4-4.6c-0.2-0.2-0.4-0.2-0.6-0.1c-2.4,1.3-4.7,2.8-6.8,4.6c-2.4,2-4.5,4.3-6.3,6.7c-1,1.4-1.9,2.8-2.8,4.3c-0.5,0.8-0.9,1.7-1.3,2.6c-0.3,0.7-0.6,1.3-0.9,2c-0.2,0.5-0.4,1.1-0.6,1.7c0.1,0.1,0.1,0.2,0.2,0.3c1.8,1.6,3.7,3.2,5.5,4.7c0.2,0.3,0.6,0.3,0.9,0.1c2.7-1.5,5.3-3.4,7.6-5.5c0.7-0.7,1.4-1.4,2.1-2.1c0.9-0.8,1.7-1.8,2.4-2.8c0.3-0.5,0.8-0.9,1.1-1.4c0.9-1.3,1.8-2.6,2.5-4c1-1.8,1.9-3.7,2.6-5.7C35.4,9,35.4,8.7,35.1,8.6zM28.3,13.9c-1.5,0-2.8-1.2-2.8-2.8s1.2-2.8,2.8-2.8s2.8,1.2,2.8,2.8C31.1,12.6,29.9,13.9,28.3,13.9C28.3,13.9,28.3,13.9,28.3,13.9z"></path>
	<path fill="#F3BA2F" d="M13.9,16.4c-0.1,0-0.2,0-0.3-0.1c-1-0.1-2-0.1-3-0.2c-0.4-0.1-0.8,0.2-1,0.6c-1.2,1.8-2.3,3.5-3.4,5.2c-0.4,0.6-0.7,1.2-1,1.7c-0.6,1-1.3,2-2,3C3.1,26.8,3.1,26.9,3,27c0.1,0,0.1,0,0.1,0c1.5-0.6,3.1-1.2,4.6-1.8c0.7-0.3,1.3-0.6,2-0.9c0.1-0.1,0.2-0.2,0.2-0.3c0.2-0.4,0.4-0.8,0.5-1.2c0.6-1.4,1.2-2.7,2-4L13.9,16.4z"></path>
</svg>