<svg xmlns="http://www.w3.org/2000/svg" id="icon-eye-lock" viewBox="0 0 40 40">
    <path d="M20,28.4c-4.4,0-8-3.4-8.4-7.8l-6.1-4.8c-0.8,1-1.6,2.1-2.2,3.3c-0.3,0.5-0.3,1.2,0,1.7c3.2,6.2,9.5,10.4,16.7,10.4c1.6,0,3.1-0.2,4.6-0.6l-3-2.4C21,28.4,20.5,28.4,20,28.4z M38.4,31.8l-6.5-5c2-1.7,3.6-3.7,4.8-6c0.3-0.5,0.3-1.2,0-1.7C33.5,12.9,27.2,8.8,20,8.8c-3,0-6,0.8-8.6,2.2L3.9,5.2C3.5,4.9,2.9,5,2.6,5.4c0,0,0,0,0,0L1.4,6.8c-0.3,0.4-0.2,1,0.2,1.3l34.5,26.6c0.4,0.3,1,0.2,1.3-0.2c0,0,0,0,0,0l1.2-1.5C38.9,32.7,38.8,32.2,38.4,31.8z M27.6,23.5l-2.3-1.8c0.2-0.6,0.3-1.1,0.3-1.7c0-3.1-2.4-5.6-5.5-5.6c-0.6,0-1.1,0.1-1.6,0.2c0.4,0.5,0.5,1.1,0.5,1.7c0,0.2,0,0.4-0.1,0.6l-4.3-3.3c1.5-1.3,3.4-1.9,5.3-1.9c4.7,0,8.4,3.8,8.4,8.4c0,0,0,0,0,0C28.4,21.3,28.1,22.4,27.6,23.5L27.6,23.5z"></path>
</svg>