<svg xmlns="http://www.w3.org/2000/svg" id="icon-sber" viewBox="0 0 24 24">
    <title>icon-sber</title>
    <circle fill="#282828" cx="12" cy="12" r="12"></circle>
    <path fill="#f3ba2f" d="M17.07,4.88l.73.66L8.68,10.78,4.27,8.22l.42-.82,4,2.29Zm-1.83-1,1,.5L8.68,8.65l-3.5-2,.6-.72L8.68,7.6Zm3.19,2.39.54.72L8.68,12.86,3.72,10l.22-.9,4.74,2.72Z"></path>
    <path fill="#f3ba2f" d="M19.92,8.88a8,8,0,0,1,.45,2.68,8.34,8.34,0,0,1-.45,2.72l-.21.56a8.51,8.51,0,0,1-1.79,2.68,8.29,8.29,0,0,1-2.68,1.77,8.25,8.25,0,0,1-6.56,0A8.55,8.55,0,0,1,6,17.52a8.11,8.11,0,0,1-1.8-2.68,8.58,8.58,0,0,1-.66-3.28V11l5.11,2.91L19.47,7.73l.45,1.15Z"></path>
</svg>