<svg xmlns="http://www.w3.org/2000/svg" id="icon-message" viewBox="0 0 40 40">
    <path fill="currentColor" d="M38.8,15c0.3-0.2,0.7,0,0.7,0.4V31c0,2-1.6,3.7-3.7,3.7H4.2c-2,0-3.7-1.6-3.7-3.7V15.4c0-0.4,0.4-0.6,0.7-0.4c1.7,1.3,4,3,11.7,8.7c1.6,1.2,4.3,3.6,7,3.6c2.7,0,5.5-2.5,7-3.6C34.8,18.1,37.1,16.4,38.8,15z M20,24.9c1.8,0,4.3-2.2,5.6-3.2c10.1-7.3,10.9-8,13.2-9.8c0.4-0.3,0.7-0.9,0.7-1.4V9c0-2-1.6-3.7-3.7-3.7H4.2C2.1,5.4,0.5,7,0.5,9v1.4c0,0.6,0.3,1.1,0.7,1.4c2.3,1.8,3.1,2.5,13.2,9.8C15.7,22.7,18.2,24.9,20,24.9L20,24.9z"></path>
</svg>