<svg xmlns="http://www.w3.org/2000/svg" id="icon-like" viewBox="0 0 40 40">
	<title>icon-like</title>
	<path fill="#F3BA2F" d="M39,23.2c0-1-0.4-2-1.1-2.8c0.5-0.7,0.7-1.5,0.7-2.3c0-2.1-0.9-3.3-3-3.6c-0.1,0-0.3-0.1-0.4-0.1h-9.5c0.1-0.6,0.2-1.9,0.4-2.5c0.5-2.3,1-4.5-0.9-7.6c-1.3-2.2-2.7-2.4-3.7-2.4c-0.7,0-1.3,0.1-1.9,0.4c-0.6,0.3-0.4,0.4-0.3,1.1c0.3,1.9,0.4,3.9,0.4,5.8c-0.2,0.6-1.5,3.1-2.4,4.6c-0.8,1.4-1.6,2.9-2.3,4.4c-0.1,0.4-0.3,0.7-0.6,0.9l-0.6,0.3c0-0.9-0.8-2.3-1.7-2.3H2.7c-0.9,0-1.7,0.8-1.7,1.7v17.5c0,0.9,0.8,1.7,1.7,1.7c0,0,0,0,0,0h9.6c0.9,0,1.7-0.8,1.7-1.7c0,0,0,0,0,0v-1.3c1,0.5,2.1,0.9,3.2,1.2c0.2,0,0.3,0.1,0.5,0.1h13.8c2.4,0,3.7-1.3,3.7-3.7c0-0.3,0-0.5-0.1-0.8c1.4-0.7,2.3-2.2,2.3-3.8c0-0.5-0.1-0.9-0.2-1.4C38.3,26,39,24.6,39,23.2z"></path>
	<path fill="#F3BA2F" d="M3,18.3h8.9c0.6,0,1,0.5,1,1V36c0,0.6-0.5,1-1,1H3c-0.6,0-1-0.5-1-1V19.3C2,18.7,2.5,18.3,3,18.3z"></path>
	<path fill="#F3BA2F" d="M21.6,3c0.7,0,1.7,0.3,2.6,1.7c1.5,2.6,1.4,4.8,0.9,6.8s-0.7,4-0.7,4h10.8l0,0c1.4,0.1,2.4,1.4,2.3,2.8c-0.1,1.3-1.2,2.3-2.5,2.3h0.4c1.4,0.1,2.5,1.3,2.4,2.7c-0.1,1.3-1.1,2.4-2.4,2.4h-0.7c1.3,0.5,1.9,2,1.4,3.3c-0.4,1-1.3,1.6-2.4,1.6H33c1.1,0.9,1.3,2.5,0.5,3.6c-0.5,0.6-1.2,1-2,1H17.6c-1.2-0.4-2.4-0.8-3.6-1.4V20.7c1-0.1,1.8-0.8,2.1-1.8c0.7-1.8,4.5-8.1,4.7-9.3s-0.4-6.3-0.4-6.3C20.8,3.1,21.2,3,21.6,3"></path>
	<circle fill="#2C2C2C" cx="5.3" cy="33.5" r="1.6"></circle>
</svg>