<svg xmlns="http://www.w3.org/2000/svg" id="icon-exchange" viewBox="0 0 40 40">
	<circle fill="#282828" cx="20" cy="20" r="19"></circle>
	<path fill="#E2B73D" d="M22.9,33.4c-2.7,0.6-5.6-0.6-6.8-3.1c-1.2-2.5-0.4-5.7,1.8-7.3c2.1-1.5,5.1-1.4,7.1,0.2c2.5,2,2.8,5.4,1.1,8c-0.2,0.4,0.3,0.7,0.6,0.3c1.9-2.8,1.5-6.7-1.2-8.8c-2.3-1.9-5.8-1.9-8.2-0.1c-2.3,1.8-3.1,5-2,7.7c1.3,3,4.6,4.5,7.7,3.7C23.5,34,23.4,33.3,22.9,33.4L22.9,33.4z"></path>
	<circle fill="#E2B73D" cx="24.9" cy="32.9" r="0.4"></circle>
	<path fill="#E2B73D" d="M17.1,6.7c2.7-0.6,5.6,0.6,6.8,3.1c1.2,2.5,0.4,5.7-1.8,7.3c-2.1,1.5-5.1,1.4-7.1-0.2c-2.5-2-2.8-5.4-1.1-8c0.2-0.4-0.3-0.7-0.6-0.3c-1.9,2.8-1.5,6.7,1.2,8.8c2.3,1.9,5.8,1.9,8.2,0.1c2.3-1.8,3.1-5,2-7.7c-1.3-3-4.6-4.5-7.7-3.7C16.5,6.1,16.7,6.8,17.1,6.7L17.1,6.7z"></path>
	<circle fill="#E2B73D" cx="15.1" cy="7.2" r="0.4"></circle>
	<path fill="#E2B73D" d="M21.6,10.3c0,0.4-0.1,0.8-0.2,1.1c-0.1,0.3-0.3,0.6-0.6,0.8c-0.3,0.2-0.5,0.4-0.9,0.5c-0.3,0.1-0.7,0.2-1,0.2h-0.7v0.9h1.7v0.6h-1.7v0.9c0,0.1,0,0.2,0,0.3c0,0.1,0.1,0.2,0.1,0.2c0.1,0.1,0.2,0.1,0.3,0.1c0.1,0,0.3,0.1,0.6,0.1v0.4H16V16c0.2,0,0.3,0,0.4,0c0.1,0,0.2,0,0.3-0.1c0.1,0,0.2-0.1,0.2-0.2c0-0.1,0.1-0.2,0.1-0.4v-0.9h-0.8v-0.6H17v-0.9h-0.8v-0.6H17V9.4C17,9.3,17,9.1,17,9c-0.1-0.1-0.1-0.2-0.2-0.2c-0.1,0-0.2-0.1-0.3-0.1c-0.1,0-0.2,0-0.4,0V8.3h3.2c0.3,0,0.7,0,0.9,0.1c0.3,0.1,0.5,0.2,0.7,0.4c0.2,0.2,0.4,0.4,0.5,0.6C21.5,9.7,21.6,10,21.6,10.3z M18.1,8.7v3.6h0.4c0.3,0,0.5,0,0.7-0.1c0.2-0.1,0.4-0.2,0.6-0.3c0.2-0.2,0.3-0.3,0.4-0.6c0.1-0.2,0.1-0.5,0.1-0.7c0-0.2,0-0.5-0.1-0.7c-0.1-0.2-0.1-0.4-0.3-0.6c-0.1-0.2-0.3-0.3-0.5-0.4c-0.2-0.1-0.4-0.2-0.7-0.2H18.1z"></path>
	<path fill="#E2B73D" d="M22.5,26.6c0,0.9-1.3,0.8-1.7,0.8l0-1.6C21.2,25.8,22.5,25.7,22.5,26.6z M22.9,29.1c0,1-1.6,0.9-2.1,0.9l0-1.8C21.3,28.2,22.9,28.1,22.9,29.1z M23.9,26.2c-0.1-1-0.8-1.3-1.8-1.4l0-1.3l-0.7,0l0,1.3c-0.2,0-0.4,0-0.6,0l0-1.3l-0.7,0l0,1.3c-0.2,0-0.3,0-0.5,0l0,0l-1,0l0,0.9c0,0,0.5,0,0.5,0c0.3,0,0.4,0.2,0.4,0.4l0,1.5c0,0,0,0,0.1,0c0,0-0.1,0-0.1,0l0,2.1c0,0.1-0.1,0.3-0.3,0.3c0,0-0.5,0-0.5,0l-0.2,1l1,0c0.2,0,0.4,0,0.5,0l0,1.3l0.7,0l0-1.3c0.2,0,0.4,0,0.6,0l0,1.3l0.7,0l0-1.3c1.2-0.1,2.1-0.4,2.2-1.7c0.1-1-0.3-1.5-1.1-1.7C23.7,27.4,24,26.9,23.9,26.2L23.9,26.2z"></path>
	<path fill="#E2B73D" d="M27,22c0-0.8,0-1.7,0-2.5c0-0.2-0.1-0.3-0.3-0.3c-0.9,0-1.7,0-2.6,0c0.1,0.2,0.2,0.4,0.2,0.6c1.6-1.9,3.1-3.8,4.7-5.7c-0.2,0-0.3,0-0.5,0c1.6,1.9,3.1,3.8,4.7,5.7c0.1-0.2,0.2-0.4,0.2-0.6c-0.9,0-1.9,0-2.8,0c-0.2,0-0.3,0.1-0.3,0.3c0,3.3,0,6.6,0,10c0,0.4,0.7,0.4,0.7,0c0-3.3,0-6.6,0-10c-0.1,0.1-0.2,0.2-0.3,0.3c0.9,0,1.9,0,2.8,0c0.3,0,0.4-0.3,0.2-0.6c-1.6-1.9-3.1-3.8-4.7-5.7c-0.1-0.1-0.4-0.1-0.5,0c-1.6,1.9-3.1,3.8-4.7,5.7c-0.2,0.2-0.1,0.6,0.2,0.6c0.9,0,1.7,0,2.6,0c-0.1-0.1-0.2-0.2-0.3-0.3c0,0.8,0,1.7,0,2.5C26.4,22.5,27,22.5,27,22L27,22z"></path>
	<path fill="#E2B73D" d="M13,18.1c0,0.8,0,1.7,0,2.5c0,0.2,0.1,0.3,0.3,0.3c0.9,0,1.7,0,2.6,0c-0.1-0.2-0.2-0.4-0.2-0.6c-1.6,1.9-3.1,3.8-4.7,5.7c0.2,0,0.3,0,0.5,0c-1.6-1.9-3.1-3.8-4.7-5.7c-0.1,0.2-0.2,0.4-0.2,0.6c0.9,0,1.9,0,2.8,0c0.2,0,0.3-0.1,0.3-0.3c0-3.3,0-6.6,0-10c0-0.4-0.7-0.4-0.7,0c0,3.3,0,6.6,0,10c0.1-0.1,0.2-0.2,0.3-0.3c-0.9,0-1.9,0-2.8,0c-0.3,0-0.4,0.3-0.2,0.6c1.6,1.9,3.1,3.8,4.7,5.7c0.1,0.1,0.4,0.1,0.5,0c1.6-1.9,3.1-3.8,4.7-5.7c0.2-0.2,0.1-0.6-0.2-0.6c-0.9,0-1.7,0-2.6,0c0.1,0.1,0.2,0.2,0.3,0.3c0-0.8,0-1.7,0-2.5C13.6,17.7,13,17.7,13,18.1L13,18.1z"></path>
</svg>