<svg xmlns="http://www.w3.org/2000/svg" id="icon-phone" viewBox="0 0 40 40">
	<circle fill="currentColor" cx="20" cy="20" r="19"></circle>
	<path fill="#282828" d="M17.3,8.6c0.5,0.3,0.9,0.8,0.9,1.4c0.3,1.2,0.5,2.4,0.7,3.6c0,0.2,0,0.4,0,0.6c0.1,0.5-0.3,1-0.7,1.2l-1,0.4c-0.3,0.1-0.6,0.4-0.6,0.7c-0.1,0.5-0.1,1,0,1.4c0.8,2.6,2.3,4.9,4.3,6.8c0.4,0.4,0.8,0.7,1.3,1c0.3,0.2,0.6,0.2,1,0.2c0.2,0,0.5-0.2,0.6-0.4l0.6-0.9c0.2-0.5,0.9-0.8,1.4-0.5c0,0,0.1,0,0.1,0.1c0.3,0.2,0.7,0.4,1,0.6l1.9,1.1l0.5,0.3c0.5,0.3,0.8,0.8,0.8,1.3v0.5c-0.1,0.3-0.3,0.7-0.4,1c-0.6,1.4-1.9,2.4-3.4,2.6c-0.3,0-0.6,0-0.9,0l-0.7-0.1c-0.3-0.1-0.6-0.2-0.8-0.3c-1.4-0.6-2.6-1.5-3.7-2.6c-1.3-1.3-2.5-2.7-3.5-4.3c-1.3-1.9-2.5-3.9-3.3-6c-0.5-1.2-0.8-2.5-0.9-3.8c0-0.4,0-0.8,0-1.2l0.1-0.8c0,0,0-0.1,0-0.2c0.3-1.7,1.6-3.1,3.3-3.6c0.4-0.1,0.8-0.1,1.2-0.2L17.3,8.6z"></path>
</svg>