<svg xmlns="http://www.w3.org/2000/svg" id="icon-yandex" viewBox="0 0 24 24">
    <title>icon-yandex</title>
    <circle fill="#282828" cx="12" cy="12" r="12"></circle>
    <path fill="#f3ba2f" d="M6.05,10.76c0-.87.07-1.43,1.89-2.78,1.5-1.12,6.31-5,6.31-5v6.4h3.67v9.2H7.19a1.15,1.15,0,0,1-1.14-1.14Z"></path>
    <polygon fill="#e0a114" points="14.26 9.42 14.26 13.13 7.53 17.71 16.03 14.94 16.03 9.42 14.26 9.42"></polygon>
    <path fill="#282828" d="M11.18,9.23c.39-.47,1-.64,1.28-.37s.26.86-.14,1.33-1,.63-1.28.37-.25-.86.14-1.33"></path>
</svg>