<svg xmlns="http://www.w3.org/2000/svg" id="icon-blank-id" viewBox="0 0 40 40">
	<circle fill="#282828" cx="20" cy="20" r="19"></circle>
	<path fill="#282828" stroke="#F2B92B" stroke-width="1.5" stroke-miterlimit="10" d="M29,13.7v17.7c0,0.5-0.4,0.9-0.9,0.9H11.7c-0.5,0-0.9-0.4-0.9-0.9V8.9c0-0.5,0.4-0.9,0.9-0.9h11.6L29,13.7z"></path>
	<path fill="#F2B92B" d="M21.1,15.9c0.6,0,1.5,0,2.1,0.7c0.7,0.7,0.8,1.9,0.8,2.4v4.8c0,0.7-0.1,1.5-0.6,2.2c-0.6,0.7-1.5,0.9-2,0.9h-2.1V15.9H21.1z M20.6,25.2h0.6c0.3,0,0.7,0,1-0.4c0.3-0.4,0.3-0.9,0.3-1.3v-4.8c0-0.3,0-0.7-0.3-1c-0.3-0.4-0.6-0.4-0.9-0.4h-0.7V25.2z"></path>
	<path fill="#F2B92B" d="M17.5,15.9v10.9H16V15.9H17.5z"></path>
	<path fill="none" stroke="#F2B92B" stroke-width="1.5" stroke-miterlimit="10" d="M23.3,8.2v5.1c0,0.3,0.2,0.5,0.5,0.5H29"></path>
</svg>