<svg xmlns="http://www.w3.org/2000/svg" id="icon-output-money" viewBox="0 0 40 40">
	<title>icon-output-money</title>
	<circle fill="#282828" cx="20" cy="20" r="19"></circle>
	<path fill="#E2B73D" d="M12.7,13.9H9.8c-0.5,0-0.8-0.4-0.8-0.8V7.8C9,7.3,9.4,7,9.8,7h2.9c0.5,0,0.8,0.4,0.8,0.8v5.3C13.6,13.5,13.2,13.9,12.7,13.9z M9.8,7.7C9.8,7.7,9.7,7.7,9.8,7.7l-0.1,5.4c0,0,0,0.1,0.1,0.1h2.9c0,0,0.1,0,0.1-0.1V7.8c0,0,0-0.1-0.1-0.1H9.8z"></path>
	<path fill="#E2B73D" d="M19.6,14.2c-1.2,0-2.5,0-3.1-0.1c-0.3,0-0.6,0-0.8-0.1c-0.2-0.1-0.6-0.3-0.7-0.4c0,0-0.1-0.1-0.2-0.1l-0.1,0c-0.2-0.1-0.8-0.1-1.3,0l-0.1-0.8c0.2,0,1.2-0.1,1.6,0.1l0.1,0c0.2,0.1,0.3,0.1,0.4,0.2c0.1,0.1,0.4,0.3,0.5,0.3c0.1,0,0.4,0.1,0.5,0.1c1.6,0.1,5,0.1,5.7,0c0.2-0.1,0.3-0.4,0.5-1.4c0.1-0.4,0.1-1.1,0.1-1.5c0-0.1,0-0.2,0-0.3c0-0.3,0.1-1.2-0.1-1.3c-0.4-0.1-1.7-0.2-3.5-0.2c-0.3,0-0.5-0.1-0.6-0.4l-1-1.8c-0.3,0.1-0.9,0.3-1,0.5c-0.2,0.2-0.7,0.6-0.9,0.8c-0.1,0.1-0.4,0.4-0.6,0.6c-0.2,0.2-0.4,0.2-0.6,0.2h-0.9V8.1h0.9c0,0,0.1,0,0.1,0c0.2-0.2,0.5-0.5,0.6-0.6c0.2-0.2,0.7-0.7,1-0.9C16.3,6.3,17.1,6,17.3,6c0.3-0.1,0.7,0,0.9,0.3l1,1.8c1.1,0,3.1,0,3.7,0.2c0.7,0.3,0.6,1.3,0.6,2c0,0.1,0,0.2,0,0.2c0,0.4-0.1,1.1-0.1,1.5c-0.1,1-0.3,1.8-1,2C21.9,14.2,20.8,14.2,19.6,14.2z M15,13.6C15,13.6,15,13.6,15,13.6C15,13.6,15,13.6,15,13.6z"></path>
	<circle fill="#E2B73D" cx="11.3" cy="9.3" r="0.4"></circle>
	<path fill="#E2B73D" d="M19.7,25.9c-0.5,0-0.9-0.1-1.4-0.2c-0.7-0.2-1.2-0.4-1.5-0.6c-0.5-0.3-0.9-0.6-1.3-1.1c-0.2-0.2-0.6-0.7-0.9-1.5c-0.3-0.7-0.3-1.3-0.3-1.6c-0.1-1.2,0.2-2.1,0.4-2.5c0.2-0.5,0.4-0.9,0.8-1.7c0.2-0.5,0.5-1,0.8-1.5c0.3-0.5,0.6-1,1-1.5l0.6,0.4c-0.3,0.5-0.6,1-0.9,1.5c-0.3,0.5-0.6,1-0.8,1.4c-0.4,0.8-0.6,1.2-0.8,1.6c-0.1,0.3-0.4,1.2-0.3,2.2c0,0.4,0,0.8,0.3,1.4c0.3,0.6,0.6,1,0.8,1.3c0.3,0.4,0.7,0.7,1.1,0.9c0.3,0.2,0.7,0.4,1.3,0.5c0.5,0.1,1.1,0.2,1.6,0.1c0.3,0,1-0.1,1.7-0.4c0.6-0.3,1.1-0.6,1.5-1.1c0.2-0.2,0.5-0.6,0.7-1.2c0.1-0.3,0.4-1.1,0.4-2.1c0-0.6-0.2-1.3-0.4-1.9c-0.1-0.2-0.3-0.7-0.8-1.5c-0.4-0.7-0.6-1.1-0.7-1.3c-0.3-0.5-0.7-1.1-1.1-1.6l0.6-0.5c0.4,0.5,0.8,1.1,1.2,1.7c0.1,0.2,0.3,0.6,0.8,1.3c0.5,1,0.8,1.4,0.8,1.6c0.3,0.9,0.4,1.6,0.5,2.1c0,1.2-0.3,2.1-0.4,2.4c-0.2,0.5-0.5,1-0.9,1.4c-0.5,0.5-1.1,1-1.7,1.3c-0.8,0.4-1.6,0.5-1.9,0.5C20,25.9,19.9,25.9,19.7,25.9z"></path>
	<path fill="#E2B73D" d="M20.5,18.5c0,0.7-1,0.6-1.4,0.6l0-1.3C19.5,17.9,20.5,17.8,20.5,18.5z M20.8,20.5c0,0.8-1.2,0.7-1.6,0.7l0-1.4C19.6,19.8,20.8,19.7,20.8,20.5z M21.6,18.3c-0.1-0.7-0.7-1-1.4-1.1l0-1l-0.6,0l0,1c-0.2,0-0.3,0-0.5,0l0-1l-0.6,0l0,1c-0.1,0-0.2,0-0.4,0l0,0l-0.8,0l0,0.7c0,0,0.4,0,0.4,0c0.2,0,0.3,0.1,0.3,0.3l0,1.2c0,0,0,0,0.1,0c0,0,0,0-0.1,0l0,1.6c0,0.1-0.1,0.2-0.2,0.2c0,0-0.4,0-0.4,0l-0.1,0.8l0.8,0c0.1,0,0.3,0,0.4,0l0,1l0.6,0l0-1c0.2,0,0.3,0,0.5,0l0,1l0.6,0l0-1c1-0.1,1.6-0.3,1.7-1.3c0.1-0.8-0.3-1.2-0.8-1.3C21.4,19.1,21.7,18.8,21.6,18.3L21.6,18.3z"></path>
	<path fill="#E2B73D" d="M21,8.8l-0.6-0.5L20.7,8l1.2-1.8c0.3-0.4,0.5-0.8,0.6-1.1c-0.1,0-0.1,0.1-0.2,0.1c-0.2,0.1-0.4,0.2-0.6,0.2c-0.3,0-0.8-0.1-1-0.2c-0.1,0-0.2-0.1-0.4-0.2c-0.2-0.1-0.3-0.2-0.4-0.2c-0.2-0.1-0.6-0.1-0.8-0.1c-0.2,0-0.6,0.1-0.7,0.1C18.3,4.9,18,5,17.9,5.1c-0.1,0.1-0.2,0.2-0.3,0.2c0,0.1,0.1,0.4,0.3,0.5L18,6.2l1,1.5l-0.6,0.4l-1.2-1.9c-0.2-0.3-0.4-0.8-0.4-1.1c0-0.2,0.3-0.4,0.7-0.7c0.2-0.1,0.5-0.3,0.8-0.4c0.3-0.1,0.7-0.2,1-0.2c0.3,0,0.8,0.1,1,0.2c0.2,0.1,0.4,0.2,0.6,0.3c0.1,0.1,0.2,0.1,0.3,0.2c0.2,0.1,0.5,0.2,0.7,0.2c0.1,0,0.2-0.1,0.3-0.1c0.2-0.1,0.4-0.2,0.6-0.2c0.2,0,0.5,0.1,0.6,0.4c0.1,0.5-0.4,1.4-0.8,1.9l-1.3,1.8L21,8.8z M17.5,5.4L17.5,5.4L17.5,5.4z"></path>
	<path fill="#E2B73D" d="M26.5,35.8c-0.3,0-0.6-0.1-0.8-0.3l-1-1c-0.5-0.5-0.5-1.2,0-1.7l3.4-3.4c0.2-0.2,0.5-0.3,0.8-0.3c0.3,0,0.6,0.1,0.8,0.3l1,1c0.2,0.2,0.3,0.5,0.3,0.8s-0.1,0.6-0.3,0.8l-3.4,3.4C27.1,35.7,26.8,35.8,26.5,35.8z M28.8,29.8c-0.1,0-0.2,0-0.3,0.1l-3.4,3.4c-0.2,0.2-0.2,0.4,0,0.6l1,1c0.2,0.2,0.4,0.2,0.6,0l3.4-3.4c0.1-0.1,0.1-0.2,0.1-0.3s0-0.2-0.1-0.3l0,0l-1-1C29.1,29.8,28.9,29.8,28.8,29.8z"></path>
	<circle fill="#E2B73D" cx="28.7" cy="31.4" r="0.4"></circle>
	<path fill="#E2B73D" d="M28.4,29.5c-0.8-0.9-1.7-2.2-3-2.3c-1-0.1-2.3-0.1-3.1,0.4c-1,0.6-1.7,0.3-2.8,0.5c-0.5,0.1-1,0.2-1.3,0.7C18,29.1,18,30,18.4,30.4c0.4,0.4,1.3,0.4,1.9,0.4c0.4,0,0.4-0.7,0-0.7c-0.3,0-0.7,0.1-0.9,0c-0.6,0-0.7-0.4-0.1-1.4c0.2,0,0.4,0,0.6,0c0.6,0,1.2,0.1,1.8,0c0.3-0.1,0.5-0.2,0.7-0.3c0.5-0.3,0.8-0.4,1.4-0.5c0.7,0,1.5-0.1,2.1,0.2c0.8,0.4,1.4,1.3,2,1.9C28.2,30.3,28.7,29.8,28.4,29.5L28.4,29.5z"></path>
	<path fill="#E2B73D" d="M21.1,33c-1,0-1.9,0-2.5-0.2c-0.3-0.1-0.6-0.3-0.8-0.4c-0.8-0.6-2.1-2.1-2.3-2.3c-0.2-0.2-0.6-0.7-0.8-1c0-0.1-0.1-0.1-0.2-0.2c-0.2-0.2-0.4-0.6-0.5-0.7c0,0,0,0-0.1-0.1c-0.2-0.2-0.7-0.7-0.9-1.4c0-0.2-0.1-0.4,0.1-0.7c0.3-0.6,1.3-0.9,2.3-0.4c0.2,0.1,0.6,0.4,0.8,0.6c0.2,0.2,0.5,0.6,0.6,0.8l0.1,0.1c0,0.1,0.2,0.3,0.2,0.4c0,0.1,0.2,0.1,0.3,0.2c0.1,0,0.1,0.1,0.2,0.1c0.2,0.1,0.8,0.6,0.9,0.6l-0.5,0.6c-0.2-0.1-0.6-0.5-0.8-0.6c0,0-0.1-0.1-0.2-0.1c-0.2-0.1-0.4-0.2-0.5-0.3c-0.1-0.1-0.2-0.3-0.3-0.5l0-0.1c-0.1-0.2-0.3-0.5-0.5-0.6c-0.1-0.1-0.5-0.4-0.6-0.4c-0.7-0.3-1.2-0.1-1.3,0.1c0,0,0,0.1,0,0.2c0.1,0.4,0.4,0.8,0.6,0.9c0,0,0.1,0.1,0.1,0.1c0.2,0.2,0.4,0.5,0.6,0.8c0.1,0.1,0.1,0.2,0.2,0.2c0.2,0.2,0.5,0.7,0.7,0.9c0.5,0.6,1.5,1.7,2.1,2.1c0.1,0.1,0.4,0.2,0.5,0.3c1.5,0.4,6.3,0,6.4,0l0.1,0.8C25.1,32.9,23,33,21.1,33z"></path>
</svg>