<svg xmlns="http://www.w3.org/2000/svg" id="icon-logo" viewBox="0 0 100 100">
    <title>icon-logo</title>
    <path fill="#E3B840" d="M27.5,62.9"></path>
    <path fill="#B5A885" d="M47.5,43.8"></path>
    <polygon fill="#E3B840" points="27.5,19.1 27.5,59.5 27.5,65.6 20.9,59 20.9,12.6 79.1,12.6 72.6,19.1 "></polygon>
    <polygon fill="#E3B840" points="48.8,87.4 79.1,57 79.1,16.6 72.6,23.1 72.6,39.7 72.6,54.2 48.8,78 42,71 42,80.3 "></polygon>
    <path fill="#E3B840" d="M68.6,23.1l-37.2,0v46.5l6.6,6.6V46.9h8v-6.7h-8V29.7h24v9.5c0,0.6-0.5,1.1-1.1,1.1h-5.5v-7.8h-6.6l0,41.5l6.6-6.6V46.9l11.8,0.1c0.7,0,1.3-0.6,1.3-1.3c0,0,0,0,0,0L68.6,23.1z"></path>
</svg>
