<svg xmlns="http://www.w3.org/2000/svg" id="icon-qiwi" viewBox="0 0 24 24">
    <circle fill="#282828" cx="12" cy="12" r="12"></circle>
    <path fill="#f3ba2f" d="M19.31,19.44A3.18,3.18,0,0,0,19,19a7,7,0,0,0-.74-.8c-.09,0-.13-.11-.22-.15a1.84,1.84,0,0,0-.22-.17c-.15-.11-.31-.2-.47-.3a5,5,0,0,0-1.08-.45A12.31,12.31,0,0,0,15,16.85a3.76,3.76,0,0,1-1.23-.3,2.69,2.69,0,0,1-.51-.25,2.83,2.83,0,0,1-.45-.32,2.4,2.4,0,0,1-.39-.39,2.3,2.3,0,0,1-.15-.23s0-.07-.08-.1,0-.1-.08-.12a2.25,2.25,0,0,0,0,.58c0,.07,0,.17.05.25s.08.18.05.23A6.17,6.17,0,0,1,9,15.14a5.89,5.89,0,0,1-1.12-1,6.91,6.91,0,0,1-.44-.62,7.92,7.92,0,0,1-.37-.71,6.1,6.1,0,0,1-.45-1.66,5.49,5.49,0,0,1,.06-1.9,6.09,6.09,0,0,1,.23-.82c.06-.12.12-.24.17-.37s.12-.24.21-.34A3.85,3.85,0,0,1,9.73,5.9a4.61,4.61,0,0,1,1.85,0,5.79,5.79,0,0,1,2.81,1.44,6.42,6.42,0,0,1,1.73,2.52,5.67,5.67,0,0,1,.19,3.58l-.46-.25a3.18,3.18,0,0,0-.57-.13,1.52,1.52,0,0,0-.67.08,1.64,1.64,0,0,1,.81.13,1.46,1.46,0,0,1,.28.14,2,2,0,0,1,.49.35A2.52,2.52,0,0,1,17,15.16s0,0,0,0a0,0,0,0,0,0,0l.07-.08a.66.66,0,0,0,.12-.17,2.21,2.21,0,0,0,.23-.36c.16-.23.28-.5.42-.75a8.07,8.07,0,0,0,.56-1.8A6.62,6.62,0,0,0,17.89,8a6.37,6.37,0,0,0-2.18-2.5A6.67,6.67,0,0,0,12.13,4.4s0,0-.05,0a7.56,7.56,0,0,0-2.1.25A6.83,6.83,0,0,0,9.11,5a7.8,7.8,0,0,0-.82.39c-.1.09-.26.14-.36.23s-.23.17-.37.24-.44.36-.65.55-.39.41-.59.61a.43.43,0,0,1-.14.16.37.37,0,0,1-.13.17c0,.08-.09.11-.12.19s-.07.13-.13.17-.16.24-.22.37-.14.26-.22.38c-.12.28-.25.55-.35.86a6.13,6.13,0,0,0-.25.94,5.38,5.38,0,0,0-.12,1.06,1.61,1.61,0,0,0,0,.49s0,0,0,.05a4.31,4.31,0,0,0,0,.46,4.32,4.32,0,0,0,.2,1,6.62,6.62,0,0,0,.3.89,8.32,8.32,0,0,0,.44.78,4.4,4.4,0,0,0,.51.69,4.26,4.26,0,0,0,.62.58,5.89,5.89,0,0,0,1.48.93,8.5,8.5,0,0,0,3.93.74c.35,0,.71-.09,1-.17a4.12,4.12,0,0,1,1-.21,6,6,0,0,1,2.13.2,5,5,0,0,1,1.65.76,4.23,4.23,0,0,1,.67.51c.21.19.39.42.59.63a.78.78,0,0,0,.11.2c.06.06,0,.19.16.17s0-.19,0-.29-.1-.19-.16-.26Z"></path>
    <path fill="#f3ba2f" d="M16.17,14.84s0,0,0,0a.36.36,0,0,0,0,.23c.09.19.12.43.32.51s.08-.17.08-.3a.87.87,0,0,0-.2-.42C16.27,14.85,16.22,14.81,16.17,14.84ZM15,15.31h0c-.17,0-.22.07-.31.14a.52.52,0,0,0,.49.74.37.37,0,0,0,.29-.32c0-.32-.16-.52-.45-.56Z"></path>
</svg>