<svg xmlns="http://www.w3.org/2000/svg" id="icon-tinkoff" viewBox="0 0 24 24">
    <circle fill="#282828" cx="12" cy="12" r="12"></circle>
    <path fill="#f3ba2f" d="M20.27,9.79a.42.42,0,0,1-.11-.15l-.07-.09a1,1,0,0,0,.16-.26l.17-.38L20,8.85l-.31-.08a6.15,6.15,0,0,0-.93-.18.65.65,0,0,0,.29-.28l.07-.12A.51.51,0,0,0,19.05,8a.84.84,0,0,0,.05-.17l.06-.28-.26-.09-.12,0a1,1,0,0,0-.07-.15L18.55,7l-.28.16a1.41,1.41,0,0,0-.18.14H18a.77.77,0,0,0-.34,0l-.23-.24-.27-.28a.82.82,0,0,0-.93-.22.91.91,0,0,0-.66-.24l-.26,0a1.52,1.52,0,0,0-.69.32l-.31-.15a1.05,1.05,0,0,1-.54.42,1.23,1.23,0,0,0-.12-.26l0-.11a2,2,0,0,1,.27-.7l.36-.56-.51,0a1.21,1.21,0,0,0,0-.18l0-.43-.4.18L13.18,5,13.1,4.8l-.18.09-.07-.15-.21-.39-.3.32-.08.1-.18-.18-.19.18-.08-.1-.29-.32-.22.39-.07.15-.18-.09L11,5l-.12-.06-.4-.18,0,.43a1.21,1.21,0,0,0,0,.18l-.51,0,.36.56a2,2,0,0,1,.27.7l0,.11a1.23,1.23,0,0,0-.12.26,1.58,1.58,0,0,1-.54-.42l-.31.15a1.54,1.54,0,0,0-1-.34A.87.87,0,0,0,8,6.55.82.82,0,0,0,7,6.77l-.27.28a1.57,1.57,0,0,1-.26.2,1.12,1.12,0,0,0-.44,0,1.41,1.41,0,0,0-.18-.14L5.6,7l-.16.29a1,1,0,0,0-.07.15l-.12,0L5,7.51l.06.28A.84.84,0,0,0,5.1,8a.36.36,0,0,1,0,.09l0,.14.07.12a.65.65,0,0,0,.29.28,6.15,6.15,0,0,0-.93.18l-.31.08-.41.06.09.21.07.17a1.45,1.45,0,0,0,.17.26s-.13.19-.18.24l-.2.21.2.23a.89.89,0,0,0,.61.26.93.93,0,0,0,.29-.05,1.82,1.82,0,0,0,.32.38,2.19,2.19,0,0,1-.72.57l-.27.12.12.3a.73.73,0,0,0,.49.46,3.48,3.48,0,0,0-.12.49c0,.35-.08.5-.39.61l-.28.1.08.28a.94.94,0,0,0,.27.49l-.19.21a2.06,2.06,0,0,0,.87.37.74.74,0,0,0,.55-.19,3.94,3.94,0,0,0,.26.66c.2.41.3.66.17.88l-.3.5.59,0a3.58,3.58,0,0,0,.69-.07v0l0,.43.51-.11a.47.47,0,0,0,.15-.06,2,2,0,0,0,1.57.66h0l-.83.34.61.31a7.48,7.48,0,0,0,1.34.53l-.07.24.31.09a5.75,5.75,0,0,0,3.15,0l.31-.09-.07-.24a7.48,7.48,0,0,0,1.34-.53l.61-.31L15,17.52h0a2,2,0,0,0,1.57-.66.47.47,0,0,0,.15.06l.51.11-.05-.43v0a3.58,3.58,0,0,0,.69.07l.58,0-.29-.5c-.13-.22,0-.47.17-.88a5,5,0,0,0,.27-.66.74.74,0,0,0,.35.16.65.65,0,0,0,.18,0,.85.85,0,0,0,.56-.17l.32-.2-.19-.21a.94.94,0,0,0,.27-.49l.08-.28-.28-.1c-.31-.11-.34-.26-.39-.61a3.48,3.48,0,0,0-.12-.49.73.73,0,0,0,.49-.46l.12-.3-.27-.12a2.19,2.19,0,0,1-.72-.57,1.82,1.82,0,0,0,.32-.38.93.93,0,0,0,.29.05h0a.86.86,0,0,0,.61-.26l.21-.23Z"></path>
    <path fill="#f3ba2f" d="M9.51,13.68V11.27a1.8,1.8,0,0,0-.14-.65h1.87a1.09,1.09,0,0,0,1.67,0h1.87a1.8,1.8,0,0,0-.14.65v2.41ZM12.08,17c-.27-.26-.45-.29-1.15-.29a1.27,1.27,0,0,1-1.42-1.28V13.82h5.13v1.57a1.27,1.27,0,0,1-1.42,1.28c-.7,0-.88,0-1.14.29"></path>
    <path fill="#f3ba2f" d="M9.81,17.26v.48l-.42.17a6.49,6.49,0,0,0,1.31.43l.23-.77a7.2,7.2,0,0,1-1.12-.31"></path>
    <path fill="#f3ba2f" d="M12.08,17.91A5.54,5.54,0,0,1,11,17.82l-.25.81a6.06,6.06,0,0,0,1.33.16,6.12,6.12,0,0,0,1.32-.16l-.25-.81a5.5,5.5,0,0,1-1.07.09"></path>
    <path fill="#f3ba2f" d="M14.34,17.26a7.2,7.2,0,0,1-1.12.31l.23.77a6.49,6.49,0,0,0,1.31-.43l-.42-.17Z"></path>
    <path fill="#f3ba2f" d="M8.94,9.51c.65-.35,2.25-1.12,1.17-2-.15-.11-.31-.22-.45-.34-.17.13.06.45.12.57l-.45,0c-.55,0-1.14-.33-.84-1-.22.05-.25.26-.32.44C8,7.2,7.79,7,7.6,7a1.86,1.86,0,0,0,1.3,1A1.63,1.63,0,0,1,7,8c-.35.67.14,1,.61,1.31C5.75,10.09,6,11,4.83,11.75a3.08,3.08,0,0,0,.9-.09,3.7,3.7,0,0,0-.45.64,2.7,2.7,0,0,0-.18.7,1,1,0,0,1-.52.78c.14.26.46.06.59,0a2.16,2.16,0,0,1-.18.48c.61,0,.33-1.33.94-1a.33.33,0,0,1,.14.45c-.4.83.51,1.56.46,2.29a.57.57,0,0,0,.61-.31,5.24,5.24,0,0,1,.26.57L7.58,16a1.37,1.37,0,0,0,1.24,1c-.3-.49.07-1.16-.69-1.87a3,3,0,0,0,.39-.32c-.92.11-1.89-.62-1.45-1,.29-.23.41.24.85.16l-.17-.15.2-.19a1.43,1.43,0,0,1-.39-.15l.11-.18c-1.08,0-1.11-.83-.67-.86.21,0,.48.36,1.14.28A1.22,1.22,0,0,1,8,12.37a1.31,1.31,0,0,0,.51-.09,1.18,1.18,0,0,1-.68-.35l.31-.12c-.45-.23-.43-.62-.44-1,.24.14.52.35.82.26.07,0,.11-.06.12-.14-.43-.16-.71-.82.32-1.38m-.78.07c-.57.61-.33,1-.21,1.09-.21-.05-.53-.32-.46-.58l-.21.26c-.14.19-.27.37-.38.55a1.08,1.08,0,0,0,.69,1.29,1,1,0,0,1-.87-1,2.93,2.93,0,0,0-.41,1.46,2.86,2.86,0,0,0,0,.43c.13.26.36.36.75.41-.36,0-.55,0-.71-.16.25,1.05,1.39,2,1.86,2.74a20.67,20.67,0,0,1-1.77-2.16,1.93,1.93,0,0,0,.33,1.21,1.84,1.84,0,0,1-.44-1.44,2.69,2.69,0,0,1-.19-.92A4.25,4.25,0,0,1,6.25,12c-.28.39-.67.54-.86,1.13,0-.77.6-.78,1-1.7a5.63,5.63,0,0,1,.67-1.15,1.89,1.89,0,0,0-1,.61c.27-.65,1.87-1.39,2.61-2.1a2.71,2.71,0,0,1-1.49-.18A4.46,4.46,0,0,0,10,8.15c-.39.56-1.24.59-2.28,1.72a2.05,2.05,0,0,1,.47-.29"></path>
    <path fill="#f3ba2f" d="M19.05,13a2.7,2.7,0,0,0-.18-.7,3.7,3.7,0,0,0-.45-.64,3.08,3.08,0,0,0,.9.09c-1.19-.73-.92-1.66-2.74-2.49.48-.36,1-.64.62-1.31a1.63,1.63,0,0,1-1.95.11,1.9,1.9,0,0,0,1.31-1c-.2,0-.44.18-.58.27-.07-.18-.1-.39-.32-.44.3.63-.29,1-.85,1l-.44,0c.06-.12.29-.44.12-.57-.14.12-.3.23-.45.34-1.08.84.52,1.61,1.17,2,1,.56.75,1.22.32,1.38,0,.08.05.11.12.14.3.09.58-.12.82-.26,0,.42,0,.81-.44,1l.31.12c-.27.2-.35.31-.67.35a1.23,1.23,0,0,0,.5.09,1.22,1.22,0,0,1-.16.37c.66.08.93-.3,1.14-.28.44,0,.41.86-.67.86l.11.18a1.43,1.43,0,0,1-.39.15l.2.19-.17.15c.44.08.56-.39.85-.16.44.35-.53,1.08-1.45,1a3,3,0,0,0,.39.32c-.76.71-.39,1.38-.69,1.87a1.38,1.38,0,0,0,1.24-1l.18.31A5.24,5.24,0,0,1,17,15.7a.57.57,0,0,0,.61.31c-.05-.73.86-1.46.46-2.29a.33.33,0,0,1,.14-.45c.62-.31.33,1,.94,1a1.62,1.62,0,0,1-.17-.48c.13,0,.44.23.58,0a1,1,0,0,1-.52-.78M17.9,12a3.61,3.61,0,0,1,.07.84,2.69,2.69,0,0,1-.19.92,1.84,1.84,0,0,1-.44,1.44,1.93,1.93,0,0,0,.33-1.21A20.67,20.67,0,0,1,15.9,16.1c.47-.78,1.61-1.69,1.86-2.74-.16.16-.35.18-.71.16.39,0,.62-.15.75-.41a2.86,2.86,0,0,0,0-.43,2.93,2.93,0,0,0-.41-1.46,1,1,0,0,1-.87,1,1.08,1.08,0,0,0,.69-1.29c-.11-.18-.24-.36-.38-.55l-.21-.26c.07.26-.25.53-.46.58.12-.11.36-.48-.21-1.09a2.05,2.05,0,0,1,.47.29c-1-1.13-1.89-1.16-2.28-1.72a4.46,4.46,0,0,0,2.74.41,2.71,2.71,0,0,1-1.49.18c.74.71,2.34,1.45,2.61,2.1a1.89,1.89,0,0,0-1-.61,5.91,5.91,0,0,1,.67,1.15c.43.92,1,.93,1,1.7-.2-.6-.59-.74-.87-1.13"></path>
    <path fill="#f3ba2f" d="M12.91,10.62a1,1,0,0,1-.83.39l-.24,0a.53.53,0,0,0,.17.28.51.51,0,0,0,.38.61.42.42,0,0,0,.27.31l-.21.24a.31.31,0,0,1-.27.11l-.94-.11c0-.1-.07-.22-.36-.17l.37-1L11,10.75l-.43.36,0,1.09-.18-.09c-.24-.11-.31.33-.08.33h.09a.11.11,0,0,0,0,.11s0,.09,0,.12a.1.1,0,0,0,0,.15.2.2,0,0,0,.11.29c.14,0,.22-.11.25-.19l1.46.45a.5.5,0,0,0,.53-.12l.38-.34a.39.39,0,0,0,.19.48,2,2,0,0,0,0,.29h1.32V11.27a1.8,1.8,0,0,1,.14-.65H12.91Z"></path>
    <path fill="#f3ba2f" d="M10.72,14.66l0,0c0,.05.06,0,.11,0l.07,0s.31.08.32-.15c0,.17-.17.52-.05.72l.17.27h-.53a.11.11,0,0,0-.11.07l-.14.29a.18.18,0,0,0,0,.2l.1.11a.5.5,0,0,0,.1-.15l0,0a.08.08,0,0,1,0-.11l.09-.18c0-.07.06-.08.14-.07l.43.1s.08,0,.11,0,.15-.1.25-.09.78.09,1-.13c.23.3.68.3.65.46l-.1.52h.15l.08-.53c0-.06.05-.15,0-.2a.42.42,0,0,1-.1-.14c-.08-.14-.07-.35-.15-.54a.25.25,0,0,1,.22-.1c.16,0,.2.31.43.54a1.49,1.49,0,0,0-.09-.3.63.63,0,0,1,.19.26c0,.08,0,.15.13.19s.12,0,.18-.08l-.25-.35a.72.72,0,0,0-.62-.35.48.48,0,0,0-.25.09.75.75,0,0,0-.63,0l-.58,0c-.11,0-.2-.13-.2-.13a.66.66,0,0,0-.54-.68s0-.09,0-.12l-.12.15L10.76,14l.26.21-.29.33a.08.08,0,0,0,0,.09"></path>
    <path fill="#f3ba2f" d="M10.35,15.34a.18.18,0,0,0,0,.25l0,.09.12-.1,0-.06a.08.08,0,0,1,0-.11l.18-.14a.13.13,0,0,1,.12,0l.38.08a.51.51,0,0,1-.08-.17l-.36-.05a.18.18,0,0,0-.12.05Z"></path>
    <path fill="#f3ba2f" d="M12.77,16.47h.14l.23-.57,0,0-.25-.12c.06.08.11.11.08.18Z"></path>
    <path fill="#f3ba2f" d="M12.89,8.8l.27-1.52-1,.34V9.19Zm-.57-1L13,7.53l-.28.21a2.34,2.34,0,0,1-.39.2Zm0,.36.61-.21a2.08,2.08,0,0,1-.22.18,3.64,3.64,0,0,1-.39.2Zm0,.4.54-.21s0,.07-.15.17a2.34,2.34,0,0,1-.39.2Z"></path>
    <path fill="#f3ba2f" d="M11.1,10.15l0,0h.2v0a.38.38,0,0,0,0,.1.64.64,0,0,0,.19.29.87.87,0,0,0,.52.16.69.69,0,0,0,.75-.55v0H13l0,0c.19-.3.43-.64.71-.69L13,9l-.93.51L11.15,9l-.76.44c.28,0,.52.39.71.69"></path>
    <path fill="#f3ba2f" d="M12,9.19V7.62l-1-.34.27,1.52Zm-.17-.49a2,2,0,0,1-.38-.2c-.16-.1-.16-.17-.16-.17l.54.21Zm0-.92v.16a2,2,0,0,1-.38-.2l-.29-.21Zm0,.36v.17a3,3,0,0,1-.38-.2,1.79,1.79,0,0,1-.23-.18Z"></path>
    <path fill="#f3ba2f" d="M12.08,6.6c-.58,0-1,.19-1.1.41l1.1.44L13.17,7c-.09-.22-.52-.41-1.09-.41"></path>
    <path fill="#f3ba2f" d="M12.08,6a2.34,2.34,0,0,1,1.13.3,1.68,1.68,0,0,1,.16-.39l-.26,0-.21-.45-.39.21-.43-.43-.44.43-.39-.21L11,5.92l-.26,0a2.27,2.27,0,0,1,.16.39A2.35,2.35,0,0,1,12.08,6"></path>
    <path fill="#f3ba2f" d="M19.25,9.43a.72.72,0,0,0,.39-.16,3.44,3.44,0,0,0-1.46-.21c-.18,0-.28.1-.22.14a3.14,3.14,0,0,1,.91,1.15A.77.77,0,0,0,19,9.59c.46.27.58.41.79.35a2.85,2.85,0,0,0-.49-.51"></path>
    <path fill="#f3ba2f" d="M5.28,10.35A3.14,3.14,0,0,1,6.19,9.2c.06,0,0-.12-.22-.14a3.44,3.44,0,0,0-1.46.21.72.72,0,0,0,.39.16,2.85,2.85,0,0,0-.49.51c.22.06.33-.08.79-.35a.77.77,0,0,0,.08.76"></path>
    <path fill="#282828" d="M8.43,15.16c.21-.17.38-.25.37-.65a1.46,1.46,0,0,1-1.57-.36c-.11-.15,0-.22.11-.11.25.29.72.16.89.08a.68.68,0,0,0-.16-.29c.06-.06.24-.16.28-.32a2.52,2.52,0,0,0-.48-.09.33.33,0,0,0,.1-.35,1.14,1.14,0,0,1-1-.19c-.1-.14,0-.27.1-.18s1.14.43,1.49.08a.48.48,0,0,1-.3-.22.62.62,0,0,0,.6-.47,1.37,1.37,0,0,1-.63-.1c.15-.06.25-.11.3-.29a.59.59,0,0,1-.64-.55c.38.22,1.07.12.89-.43-.32,0-.65-.54.24-1S10.77,8.79,10.69,8c-.06-.5-.87-.84-1-1.09-.34.16-.41.35-.25.67,0,0-.76.07-.82-.39a.71.71,0,0,1,.26-.56c-.09,0-.66-.15-.83.31a.57.57,0,0,0-.81,0c.34.21.56.91,1.13,1.12a1.09,1.09,0,0,1-1.45-.55c-.36.55-.57,1.09.21,1.66-1.42.65-1.41,1.88-2.64,2.47.13.33.39.33.72.28-.53.69-.07,1.41-.92,1.71.08.28.24.51.55.42-.09.14-.14.14-.28.29.46.29,1,.08,1.13-.85,0-.17.25-.06.17.1-.53,1.09.8,1.9.33,2.7a1.65,1.65,0,0,0,.9-.19.83.83,0,0,1,.12.49.36.36,0,0,0,.33-.33,1.57,1.57,0,0,0,1.54.9c-.45-.65,0-1.3-.67-2m-.85.8-.18.31a5.24,5.24,0,0,0-.26-.57.57.57,0,0,1-.61.31c0-.73-.86-1.46-.46-2.29a.33.33,0,0,0-.14-.45c-.61-.31-.33,1-.94,1a2.16,2.16,0,0,0,.18-.48c-.13,0-.45.23-.59,0A1,1,0,0,0,5.1,13a2.7,2.7,0,0,1,.18-.7,3.7,3.7,0,0,1,.45-.64,3.08,3.08,0,0,1-.9.09C6,11,5.75,10.09,7.56,9.26,7.09,8.9,6.6,8.62,7,8a1.63,1.63,0,0,0,2,.11A1.86,1.86,0,0,1,7.6,7c.19,0,.43.18.57.27.07-.18.1-.39.32-.44-.3.63.29,1,.84,1l.45,0c-.06-.12-.29-.44-.12-.57.14.12.3.23.45.34,1.08.84-.52,1.61-1.17,2-1,.56-.75,1.22-.32,1.38,0,.08,0,.11-.12.14-.3.09-.58-.12-.82-.26,0,.42,0,.81.44,1l-.31.12a1.18,1.18,0,0,0,.68.35,1.31,1.31,0,0,1-.51.09,1.22,1.22,0,0,0,.16.37c-.66.08-.93-.3-1.14-.28-.44,0-.41.86.67.86l-.11.18a1.43,1.43,0,0,0,.39.15l-.2.19.17.15c-.44.08-.56-.39-.85-.16-.44.35.53,1.08,1.45,1a3,3,0,0,1-.39.32c.76.71.39,1.38.69,1.87a1.37,1.37,0,0,1-1.24-1"></path>
    <path fill="#282828" d="M6.39,13.36c.16.16.35.18.71.16-.39,0-.62-.15-.75-.41a2.86,2.86,0,0,1,0-.43,2.93,2.93,0,0,1,.41-1.46,1,1,0,0,0,.87,1A1.08,1.08,0,0,1,6.9,10.9c.11-.18.24-.36.38-.55l.21-.26c-.07.26.25.53.46.58-.12-.11-.36-.48.21-1.09a2.05,2.05,0,0,0-.47.29c1-1.13,1.89-1.16,2.28-1.72a4.46,4.46,0,0,1-2.74.41,2.71,2.71,0,0,0,1.49.18c-.74.71-2.34,1.45-2.61,2.1a1.89,1.89,0,0,1,1-.61,5.91,5.91,0,0,0-.67,1.15c-.43.92-1,.93-1,1.7.19-.59.58-.74.86-1.13a4.25,4.25,0,0,0-.07.84,2.69,2.69,0,0,0,.19.92,1.84,1.84,0,0,0,.44,1.44,1.93,1.93,0,0,1-.33-1.21A20.67,20.67,0,0,0,8.25,16.1c-.47-.78-1.61-1.69-1.86-2.74"></path>
    <path fill="#282828" d="M17.06,10.23a1.89,1.89,0,0,1,1,.61c-.27-.65-1.87-1.39-2.61-2.1a2.71,2.71,0,0,0,1.49-.18,4.46,4.46,0,0,1-2.74-.41c.39.56,1.24.59,2.28,1.72A2.05,2.05,0,0,0,16,9.58c.57.61.33,1,.21,1.09.21-.05.53-.32.46-.58l.21.26c.14.19.27.37.38.55a1.08,1.08,0,0,1-.69,1.29,1,1,0,0,0,.87-1,2.93,2.93,0,0,1,.41,1.46,2.86,2.86,0,0,1,0,.43c-.13.26-.36.36-.75.41.36,0,.55,0,.71-.16-.25,1.05-1.39,2-1.86,2.74a20.67,20.67,0,0,0,1.77-2.16,1.93,1.93,0,0,1-.33,1.21,1.84,1.84,0,0,0,.44-1.44,2.69,2.69,0,0,0,.19-.92A3.61,3.61,0,0,0,17.9,12c.28.39.67.54.87,1.13,0-.77-.61-.78-1-1.7a5.91,5.91,0,0,0-.67-1.15"></path>
    <path fill="#282828" d="M18.91,12c.34,0,.6,0,.73-.28-1.23-.59-1.22-1.82-2.64-2.47.78-.57.57-1.11.21-1.66a1.09,1.09,0,0,1-1.45.55c.57-.21.79-.91,1.13-1.12a.57.57,0,0,0-.81,0c-.17-.46-.74-.31-.83-.31a.71.71,0,0,1,.26.56c0,.46-.82.39-.82.39.16-.32.09-.51-.25-.67-.11.25-.92.59-1,1.09-.08.77.84,1.25,1.65,1.68s.56,1,.24,1c-.18.55.51.65.9.43a.61.61,0,0,1-.65.55c.05.18.15.23.3.29a1.37,1.37,0,0,1-.63.1.62.62,0,0,0,.6.47.48.48,0,0,1-.3.22c.35.35,1.3.12,1.49-.08s.2,0,.1.18a1.14,1.14,0,0,1-1,.19.31.31,0,0,0,.1.35,2.52,2.52,0,0,0-.48.09c0,.16.22.26.28.32a.68.68,0,0,0-.16.29c.17.08.64.21.89-.08.11-.11.22,0,.11.11a1.46,1.46,0,0,1-1.57.36c0,.4.16.48.37.65-.64.74-.22,1.39-.67,2a1.57,1.57,0,0,0,1.54-.9.36.36,0,0,0,.33.33.9.9,0,0,1,.11-.49,1.71,1.71,0,0,0,.91.19c-.47-.8.86-1.61.33-2.7-.08-.16.15-.27.17-.1.13.93.67,1.14,1.13.85-.14-.15-.19-.15-.28-.29.31.09.47-.14.55-.42-.85-.3-.39-1-.93-1.71M19,13.81a1.62,1.62,0,0,0,.17.48c-.61,0-.33-1.33-.94-1a.33.33,0,0,0-.14.45c.4.83-.51,1.56-.46,2.29A.57.57,0,0,1,17,15.7a5.24,5.24,0,0,0-.26.57L16.57,16a1.38,1.38,0,0,1-1.24,1c.3-.49-.07-1.16.69-1.87a3,3,0,0,1-.39-.32c.92.11,1.89-.62,1.45-1-.29-.23-.41.24-.85.16l.17-.15-.2-.19a1.43,1.43,0,0,0,.39-.15l-.11-.18c1.08,0,1.11-.83.67-.86-.21,0-.48.36-1.14.28a1.22,1.22,0,0,0,.16-.37,1.31,1.31,0,0,1-.51-.09,1.18,1.18,0,0,0,.68-.35L16,11.81c.46-.23.43-.62.44-1-.24.14-.52.35-.82.26-.07,0-.11-.06-.12-.14.43-.16.7-.82-.32-1.38-.65-.35-2.25-1.12-1.17-2,.15-.11.31-.22.45-.34.17.13-.06.45-.12.57l.44,0c.56,0,1.15-.33.85-1,.22.05.25.26.32.44.14-.09.38-.3.58-.27a1.9,1.9,0,0,1-1.31,1A1.63,1.63,0,0,0,17.2,8c.35.67-.14,1-.62,1.31,1.82.83,1.55,1.76,2.74,2.49a3.08,3.08,0,0,1-.9-.09,3.7,3.7,0,0,1,.45.64,2.7,2.7,0,0,1,.18.7,1,1,0,0,0,.52.78c-.14.26-.45.06-.58,0"></path>
    <path fill="#282828" d="M10.34,15.84l.26-.22,0-.08c0-.06,0-.06,0-.08l.14-.1a.11.11,0,0,1,.11,0l.41.1h-.44a.15.15,0,0,0-.16.12l0,.06-.11.23a.25.25,0,0,0,0,.3l.08.09-.16.33h.13l.11-.23A.67.67,0,0,0,10.9,16c-.05,0-.08-.06-.06-.12l.05-.1s0-.05.07,0l.43.09c.06,0,.14,0,.19,0s.07-.08.21-.07l.22,0a1.13,1.13,0,0,0,.71-.14c0,.09.13.16.17.24s0,.06,0,.11l-.25.59H13l.22-.54a.35.35,0,0,1,.07-.11l-.13.65h.37l.1-.65c0-.14,0-.19-.06-.25s-.15-.4-.2-.56a.1.1,0,0,1,.09,0c.08,0,.14.21.24.34s.45.56.74.15l-.09-.13-.09-.1s-.27-.31-.37-.41a.56.56,0,0,0-.68-.08,1.09,1.09,0,0,0-.69,0l-.52,0a.09.09,0,0,1-.08-.05l.09,0a.87.87,0,0,0-.71-.74s0-.12-.08-.14l-.12.14a.19.19,0,0,0-.1,0l-.5-.19.38.38s-.2.28-.26.34a.11.11,0,0,0,0,.14l.07.09s.08,0,.15,0l.08,0s.16,0,.21,0a1.22,1.22,0,0,0-.06.3l-.34,0a.18.18,0,0,0-.15,0l-.29.22a.25.25,0,0,0-.07.32Zm2.8.06-.23.57h-.14l.23-.55c0-.07,0-.1-.08-.18l.25.12,0,0m-2.21-1.23-.07,0s-.07,0-.11,0l0,0a.08.08,0,0,1,0-.09l.29-.33L10.76,14l.33.12.12-.15s0,.12,0,.12a.66.66,0,0,1,.54.68s.09.13.2.13l.58,0a.75.75,0,0,1,.63,0,.6.6,0,0,1,.25-.1.75.75,0,0,1,.62.36l.25.35c-.06.07-.12.1-.18.08s-.1-.11-.13-.19a.63.63,0,0,0-.19-.26,1.49,1.49,0,0,1,.09.3c-.23-.23-.27-.5-.43-.54a.25.25,0,0,0-.22.1c.08.19.07.4.15.54a.42.42,0,0,0,.1.14c.07,0,0,.14,0,.2l-.08.53h-.15l.1-.52c0-.16-.42-.16-.65-.46-.19.22-.74.17-1,.13s-.19,0-.25.09-.08,0-.11,0l-.43-.1c-.08,0-.11,0-.14.07l-.09.18a.08.08,0,0,0,0,.11l0,0a.5.5,0,0,1-.1.15l-.1-.11a.18.18,0,0,1,0-.2l.14-.29a.11.11,0,0,1,.11-.07h.53l-.17-.27c-.12-.2.09-.55.05-.72,0,.23-.28.12-.32.15m-.58.67.25-.19a.18.18,0,0,1,.12-.05l.36.05a.51.51,0,0,0,.08.17l-.38-.08a.13.13,0,0,0-.12,0l-.18.14a.08.08,0,0,0,0,.11l0,.07-.12.09,0-.09a.18.18,0,0,1,0-.25"></path>
    <path fill="#282828" d="M11.45,8.5a2,2,0,0,0,.38.2V8.54l-.54-.21s0,.07.16.17"></path>
    <path fill="#282828" d="M11.83,8.31V8.14l-.61-.21a1.79,1.79,0,0,0,.23.18,3,3,0,0,0,.38.2"></path>
    <path fill="#282828" d="M11.83,7.94V7.78l-.67-.25.29.21a2,2,0,0,0,.38.2"></path>
    <path fill="#282828" d="M13.71,10.15h.68a.32.32,0,0,0-.33-.19.37.37,0,0,0-.35.19"></path>
    <path fill="#282828" d="M13,7.53l-.67.25v.16a2.34,2.34,0,0,0,.39-.2L13,7.53"></path>
    <path fill="#282828" d="M12.86,8.33l-.54.21V8.7a2.34,2.34,0,0,0,.39-.2c.15-.1.15-.17.15-.17"></path>
    <path fill="#282828" d="M12.93,7.93l-.61.21v.17a3.64,3.64,0,0,0,.39-.2,2.08,2.08,0,0,0,.22-.18"></path>
    <path fill="#282828" d="M10.09,10a.32.32,0,0,0-.33.19h.68a.38.38,0,0,0-.35-.19"></path>
    <path fill="#282828" d="M13.43,7.09c0-.38-.64-.73-1.36-.73s-1.36.35-1.36.73l0,.1L11,8.82l-1.34.79a.76.76,0,0,0-.35.54h.25a.53.53,0,0,1,.56-.47.85.85,0,0,1,.68.47l0,.08.07.1H9a2.27,2.27,0,0,1,.28.94v4.12A1.55,1.55,0,0,0,10.93,17c.68,0,.77,0,1.15.34.37-.37.46-.34,1.14-.34a1.55,1.55,0,0,0,1.7-1.57V11.27a2.27,2.27,0,0,1,.28-.94h-2l.07-.1.05-.08A.85.85,0,0,1,14,9.68a.54.54,0,0,1,.57.47h.25a.76.76,0,0,0-.35-.54l-1.34-.79.28-1.63ZM11,7.28l1,.34V9.19l-.74-.39Zm.25,3.34a1,1,0,0,0,.6.37.5.5,0,0,0,.17.28.51.51,0,0,0,.38.61.42.42,0,0,0,.27.31l-.21.24a.31.31,0,0,1-.27.11l-.94-.11c0-.1-.07-.22-.36-.17l.37-1L11,10.75l-.43.36,0,1.09-.18-.09c-.24-.11-.31.33-.08.33h.09a.11.11,0,0,0,0,.11s0,.09,0,.12a.1.1,0,0,0,0,.15.2.2,0,0,0,.11.29c.14,0,.22-.11.25-.19l1.46.45a.5.5,0,0,0,.53-.12l.38-.34a.39.39,0,0,0,.2.48,1.65,1.65,0,0,0,0,.29H9.51V11.27a1.8,1.8,0,0,0-.14-.65Zm1.57.91a.5.5,0,0,0,0,.49l-.06.06c-.28,0-.38-.44-.38-.44a.41.41,0,0,0,0,.11.38.38,0,0,1-.25-.4.43.43,0,0,0,.2.07l0-.12A.4.4,0,0,1,12,11h.08a1.13,1.13,0,0,0,.32,0,.49.49,0,0,0,.36.21.61.61,0,0,0,.05.36m.41,1.08a.54.54,0,0,0-.07.13l-.15.14a.74.74,0,0,0-.26-.6l.16-.16,0,0a.36.36,0,0,0,.28.45m-.74-.07.12-.12a.69.69,0,0,1,.25.6l-.14.12-.09.07a.74.74,0,0,0-.14-.67m-.27.11h0l.14,0a.68.68,0,0,1,.05.64l-.18,0h-.05a.83.83,0,0,0,0-.58m-.32,0,.18,0a.9.9,0,0,1-.09.55l-.2-.06a.86.86,0,0,0,.11-.51m-.37,0,.21,0a.87.87,0,0,1-.1.49L11.41,13a.72.72,0,0,0,.11-.45m-.87-.06a.09.09,0,0,1-.14-.1.37.37,0,0,1,.34,0c.05,0,.1.13.17.19a1.43,1.43,0,0,1-.07.28.21.21,0,0,1-.13-.34.15.15,0,0,0-.17,0m-.14.4.13,0a.08.08,0,0,1-.09.07.07.07,0,0,1,0-.1m-.2-.58a.06.06,0,0,1,0-.11,1.12,1.12,0,0,1,.22.11s-.21,0-.25,0m.2.42c.05,0,.18,0,.18,0v0c-.06.08-.21,0-.18,0m.18-.09c-.09,0-.19,0-.16-.07s.16,0,.16,0Zm.14-1.08-.18.65.06-1.05.27-.23.14.3-.35,1,.09-.68c0-.05,0-.06,0,0m0,.79a1.14,1.14,0,0,1,.25,0s0,.08,0,.08a1.61,1.61,0,0,1-.21-.09m.31.15.22,0a.74.74,0,0,1-.1.43l-.21-.06a1.3,1.3,0,0,0,.09-.4m3.49,2.88a1.21,1.21,0,0,1-.62,1.1l.14-.28H14l-.17.36a1.81,1.81,0,0,1-.63.1c-.7,0-.88,0-1.14.29-.27-.26-.45-.29-1.15-.29a1.72,1.72,0,0,1-.62-.1h0l.18-.36h-.13l-.16.31-.11-.06.13-.25h-.13l-.1.19a1.21,1.21,0,0,1-.48-1V13.82h5.13Zm.14-4.77a1.8,1.8,0,0,0-.14.65v2.41h-.28a1.69,1.69,0,0,1-.24-.54.66.66,0,0,0,.09.54h-.36a2.12,2.12,0,0,1-.17-.55c-.11.12,0,.45,0,.55h-.24a1.13,1.13,0,0,1,0-.36c-.12,0-.26-.09-.26-.23a.2.2,0,0,0,.18.06l.1-.08c-.34,0-.35-.36-.08-.54-.27,0-.47-.15-.37-.43a.39.39,0,0,1-.12-.56.48.48,0,0,1,0-.48.51.51,0,0,1-.37-.14h0a.93.93,0,0,0,.41-.31Zm-1-1.16c-.28,0-.52.39-.71.69l0,0h-.21v0a.69.69,0,0,1-.75.55.87.87,0,0,1-.52-.16.64.64,0,0,1-.19-.29.38.38,0,0,1,0-.1v0h-.2l0,0c-.19-.3-.43-.64-.71-.69L11.15,9l.93.51L13,9Zm-.87-.66-.74.39V7.62l1-.34Zm-.81-1.35L11,7c.09-.22.52-.41,1.1-.41s1,.19,1.09.41Z"></path>
    <path fill="#282828" d="M14.52,12.17v-.12c-.37,0-.45-.44-.45-.44a.44.44,0,0,0,.45.56"></path>
    <path fill="#282828" d="M14.05,12.91l0-.11c-.31.08-.47-.42-.47-.42a.42.42,0,0,0,.51.53"></path>
    <path fill="#282828" d="M14.27,12.45c-.38.06-.53-.38-.53-.38a.42.42,0,0,0,.36.5.33.33,0,0,0,.49.36l0-.1a.25.25,0,0,1-.28-.38"></path>
    <path fill="#282828" d="M14.05,11.2v-.12c-.5-.11-.46-.45-.46-.45a.46.46,0,0,0,.46.57"></path>
    <polygon fill="#282828" points="10.89 16.21 10.72 16.57 10.85 16.57 11.03 16.21 10.89 16.21"></polygon>
    <polygon fill="#282828" points="11.16 16.21 10.98 16.57 11.12 16.57 11.3 16.21 11.16 16.21"></polygon>
    <polygon fill="#282828" points="12.24 16.21 12.06 16.57 12.2 16.57 12.37 16.21 12.24 16.21"></polygon>
    <polygon fill="#282828" points="12.51 16.21 12.33 16.57 12.46 16.57 12.64 16.21 12.51 16.21"></polygon>
    <polygon fill="#282828" points="11.97 16.21 11.79 16.57 11.93 16.57 12.11 16.21 11.97 16.21"></polygon>
    <polygon fill="#282828" points="13.54 16.57 13.68 16.57 13.86 16.21 13.72 16.21 13.54 16.57"></polygon>
    <polygon fill="#282828" points="11.43 16.21 11.26 16.57 11.39 16.57 11.57 16.21 11.43 16.21"></polygon>
    <polygon fill="#282828" points="11.7 16.21 11.52 16.57 11.66 16.57 11.84 16.21 11.7 16.21"></polygon>
    <path fill="#282828" d="M11.09,14.27a.05.05,0,0,0,0,.1.05.05,0,1,0,0-.1"></path>
    <path fill="#282828" d="M12.08,6.12a2,2,0,0,1,1.23.38,2.72,2.72,0,0,1,.32-.83l-.44,0L13,5.23l-.45.23L12.08,5l-.44.43-.45-.23L11,5.72l-.44,0a2.72,2.72,0,0,1,.32.83,2,2,0,0,1,1.24-.38m-1-.2.21-.45.39.21.44-.43.43.43.39-.21.21.45.26,0a2.27,2.27,0,0,0-.16.39,2.3,2.3,0,0,0-2.27,0,2.27,2.27,0,0,0-.16-.39Z"></path>
    <path fill="#282828" d="M12.53,5.23a.12.12,0,0,0,.13-.1.86.86,0,0,0-.09-.24.74.74,0,0,0-.15.22.12.12,0,0,0,.11.12"></path>
    <path fill="#282828" d="M13.26,5.5a.13.13,0,0,0,.16,0,.74.74,0,0,0,0-.25s-.19.08-.22.14a.12.12,0,0,0,0,.16"></path>
    <path fill="#282828" d="M11.62,5.23a.11.11,0,0,0,.11-.12.74.74,0,0,0-.15-.22.86.86,0,0,0-.09.24.12.12,0,0,0,.13.1"></path>
    <path fill="#282828" d="M10.89,5.5a.12.12,0,0,0,0-.16c0-.06-.22-.14-.22-.14a.74.74,0,0,0,0,.25.13.13,0,0,0,.16,0"></path>
    <path fill="#282828" d="M19.63,9.5A.61.61,0,0,0,20,9.16,4,4,0,0,0,17.66,9c.32-.3.61-.34.64-.79a.31.31,0,0,0,.49-.07c-.09-.27-.32-.05-.35-.13s.28,0,.35-.31c-.25-.08-.33.12-.37.08s.16-.14,0-.41c-.26.15-.13.33-.18.35s0-.19-.31-.18c0,.31.28.32.23.37s-.14-.18-.36,0a.32.32,0,0,0,.42.33c0,.48-.48.39-.81.94.7.35,1,1,1.44,1.41a2.28,2.28,0,0,0,.39-.55A.56.56,0,0,0,20,10c-.16-.16-.17-.29-.41-.51M19,9.59a.77.77,0,0,1-.08.76A3.14,3.14,0,0,0,18,9.2c-.06,0,0-.12.22-.14a3.44,3.44,0,0,1,1.46.21.72.72,0,0,1-.39.16,2.85,2.85,0,0,1,.49.51c-.21.06-.33-.08-.79-.35"></path>
    <path fill="#282828" d="M14.47,17.64v-.59a5.26,5.26,0,0,1-1.78.44l0,.22.25,0a6.59,6.59,0,0,1-.82.06,6.6,6.6,0,0,1-.83-.06l.25,0,0-.22a5.26,5.26,0,0,1-1.78-.44v.59l-.62.25a7.64,7.64,0,0,0,1.6.59l-.07.25a5.36,5.36,0,0,0,3,0l-.07-.25a7.64,7.64,0,0,0,1.6-.59Zm-5.08.27.42-.17v-.48a7.2,7.2,0,0,0,1.12.31l-.23.77a6.49,6.49,0,0,1-1.31-.43m2.69.88a6.06,6.06,0,0,1-1.33-.16l.25-.81a5.54,5.54,0,0,0,1.08.09,5.5,5.5,0,0,0,1.07-.09l.25.81a6.12,6.12,0,0,1-1.32.16m1.37-.45-.23-.77a7.2,7.2,0,0,0,1.12-.31v.48l.42.17a6.49,6.49,0,0,1-1.31.43"></path>
    <path fill="#282828" d="M4.9,10a2.28,2.28,0,0,0,.39.55c.43-.43.74-1.06,1.44-1.41C6.4,8.6,6,8.69,5.92,8.21a.33.33,0,0,0,.43-.33C6.12,7.75,6,8,6,7.93s.26-.06.23-.37c-.29,0-.24.2-.31.18s.08-.2-.18-.35c-.15.27,0,.36,0,.41s-.12-.16-.37-.08c.06.34.39.21.35.31s-.26-.14-.35.13a.32.32,0,0,0,.49.08c0,.44.32.47.64.78a4,4,0,0,0-2.31.14.63.63,0,0,0,.34.34c-.24.23-.25.35-.41.51a.56.56,0,0,0,.79,0m-.49-.07a2.85,2.85,0,0,1,.49-.51.72.72,0,0,1-.39-.16A3.44,3.44,0,0,1,6,9.06c.18,0,.28.1.22.14a3.14,3.14,0,0,0-.91,1.15.77.77,0,0,1-.08-.76c-.46.27-.57.41-.79.35"></path>
    <path fill="#282828" d="M11.7,9.68v.26A.3.3,0,0,1,12,9.86v.37a.62.62,0,0,1-.07.26h.37a.62.62,0,0,1-.07-.26V9.86a.3.3,0,0,1,.26.08V9.68H11.7Z"></path>
</svg>