<svg xmlns="http://www.w3.org/2000/svg" id="icon-usdc" viewBox="0 0 24 24">
    <title>icon-usdc</title>
    <circle fill="#282828" cx="12" cy="12" r="12"></circle>
    <path fill="#f3ba2f" d="M9.8,20.15a.34.34,0,0,1-.47.35,8.8,8.8,0,0,1,0-16.76.34.34,0,0,1,.47.35v.69a.53.53,0,0,1-.31.46A7.33,7.33,0,0,0,9.49,19a.5.5,0,0,1,.31.46Z"></path>
    <path fill="#f3ba2f" d="M12.73,17.62a.36.36,0,0,1-.36.36h-.74a.36.36,0,0,1-.36-.36V16.46a2.72,2.72,0,0,1-2.59-2.33.34.34,0,0,1,.34-.4h.83a.38.38,0,0,1,.36.3c.15.72.57,1.28,1.85,1.28.95,0,1.62-.53,1.62-1.32s-.39-1.09-1.78-1.32c-2.05-.27-3-.9-3-2.5a2.51,2.51,0,0,1,2.39-2.41V6.63a.37.37,0,0,1,.36-.37h.74a.37.37,0,0,1,.36.37V7.79a2.49,2.49,0,0,1,2.18,2,.33.33,0,0,1-.34.4H13.8a.35.35,0,0,1-.34-.27c-.21-.7-.72-1-1.6-1s-1.47.47-1.47,1.12.28,1.05,1.77,1.26c2,.27,3.06.85,3.06,2.56a2.68,2.68,0,0,1-2.48,2.59v1.18Z"></path>
    <path fill="#f3ba2f" d="M14.67,20.5a.34.34,0,0,1-.47-.35v-.68a.47.47,0,0,1,.31-.46,7.33,7.33,0,0,0,0-13.76.5.5,0,0,1-.31-.45V4.11a.35.35,0,0,1,.47-.35,8.78,8.78,0,0,1,0,16.74Z"></path>
</svg>