<svg xmlns="http://www.w3.org/2000/svg" id="icon-eye" viewBox="0 0 40 40">
    <path fill="currentColor" d="M36.8,19.1C33.6,12.9,27.3,8.7,20,8.7S6.4,12.9,3.2,19.1c-0.3,0.5-0.3,1.2,0,1.7c3.2,6.2,9.5,10.5,16.8,10.5s13.6-4.2,16.8-10.5C37.1,20.3,37.1,19.7,36.8,19.1z M20,28.5c-4.7,0-8.5-3.8-8.5-8.5s3.8-8.5,8.5-8.5s8.5,3.8,8.5,8.5C28.5,24.7,24.7,28.5,20,28.5C20,28.5,20,28.5,20,28.5z M20,14.3c-0.5,0-1,0.1-1.5,0.2c0.9,1.3,0.7,3-0.6,3.9c-1,0.7-2.4,0.7-3.3,0c-0.8,3,1,6.1,4,6.9s6.1-1,6.9-4s-1-6.1-4-6.9C21,14.4,20.5,14.3,20,14.3z"></path>
</svg>