<svg id="Слой_1" data-name="Слой 1" xmlns="http://www.w3.org/2000/svg" viewBox="0 0 24 24"><defs><style>.cls-1{fill:#282828;}.cls-2{fill:#f3ba2f;}</style></defs><title>bchabc</title><circle class="cls-1" cx="12" cy="12" r="12"/><path class="cls-2" d="M17.56,10.05h4.05l.3-1.65H18a4,4,0,0,0-2.15.72c-.23-.86-2.48-.72-2.48-.72l.3-1.64h-.92l-.3,1.64h-.9l.25-1.64h-1L10.5,8.4h-1L9,11,8.33,8.43H6.09L2,14.56H5.39l.35-1.62H5L7,10l.72,2.94H7l-.32,1.62H9.26l-.21,1.11h1l.21-1.11h.88l-.21,1.11h1l.19-1.11h1.29A2.43,2.43,0,0,0,15,13.77a2.7,2.7,0,0,0,1.83.79h3.91L21,12.94l-3.52,0C15.06,12.91,16.08,10,17.56,10.05Zm-4.39,2.86h-2.6l.21-.78H13.3C13.91,12.13,13.7,12.91,13.17,12.91Zm.39-2.12H11l.21-.79H13.7C14.3,10,14.07,10.79,13.56,10.79Z"/></svg>