<svg id="Слой_1" data-name="Слой 1" xmlns="http://www.w3.org/2000/svg" width="27px" height="27px" viewBox="0 0 24 24"><defs><style>.cls-1{fill:#282828;}.cls-2{fill:#f3ba2f;}</style></defs><title>btc</title><circle class="cls-1" cx="12" cy="12" r="12"/><path class="cls-2" d="M14.25,9.66c0,1.62-2.34,1.42-3.08,1.42V8.21C11.92,8.21,14.26,8,14.25,9.66Zm.6,4.46c0,1.79-2.81,1.57-3.7,1.57V12.53C12.06,12.53,14.86,12.26,14.85,14.12ZM16.71,9c-.14-1.71-1.49-2.28-3.19-2.45V4.22H12.21v2.3H11.15V4.21H9.85V6.56H7.18V8.09s1,0,1,0a.7.7,0,0,1,.76.63v2.69h0v3.77a.5.5,0,0,1-.5.48h-1l-.27,1.72H8.86l.94,0v2.38h1.32V17.43h1.06v2.35h1.32V17.42c2.22-.13,3.77-.73,4-3,.16-1.83-.62-2.65-1.88-3A2.26,2.26,0,0,0,16.71,9Z"/></svg>