<svg id="Слой_1" data-name="Слой 1" xmlns="http://www.w3.org/2000/svg" viewBox="0 0 24 24"><defs><style>.cls-1{fill:#282828;}.cls-2{fill:#f3ba2f;}</style></defs><title>eos</title><circle class="cls-1" cx="12" cy="12" r="12"/><path class="cls-2" d="M12.37,3.07l4,5.35a.09.09,0,0,1,0,.07l1.95,8.6a.16.16,0,0,1-.07.18L12.38,21a.15.15,0,0,1-.18,0l-5.95-3.7a.16.16,0,0,1-.07-.18l2-8.6a.09.09,0,0,1,0-.07l3.95-5.35A.16.16,0,0,1,12.37,3.07Z" transform="translate(0 0)"/><path class="cls-1" d="M12,4.21V7h0L9.56,11.2s-.05,0-.05,0L8.67,8.63a0,0,0,0,1,0,0L11.9,4.19A0,0,0,0,1,12,4.21Z" transform="translate(0 0)"/><path class="cls-1" d="M12.52,4.22V7h0l2.39,4.21s.05,0,.06,0l.83-2.57a0,0,0,0,0,0,0L12.58,4.2A0,0,0,0,0,12.52,4.22Z" transform="translate(0 0)"/><path class="cls-1" d="M7.24,15.21l1.88-3.3v0l-.7-2.2s0,0,0,0L7.2,15.19S7.23,15.23,7.24,15.21Z" transform="translate(0 0)"/><path class="cls-1" d="M17.24,15.22l-1.89-3.31v0l.7-2.21a0,0,0,0,1,0,0l1.19,5.53A0,0,0,0,1,17.24,15.22Z" transform="translate(0 0)"/><path class="cls-1" d="M11.72,20l-.84-2.56s0,0,0,0H7.58s0,0,0,0L11.68,20A0,0,0,0,0,11.72,20Z" transform="translate(0 0)"/><path class="cls-1" d="M12.76,20l.84-2.56,0,0h3.28s0,0,0,0L12.8,20A0,0,0,0,1,12.76,20Z" transform="translate(0 0)"/><path class="cls-1" d="M13.86,16.85h3.56a0,0,0,0,0,0-.06l-2.3-4.08s-.06,0-.08,0l-1.29,4A.08.08,0,0,0,13.86,16.85Z" transform="translate(0 0)"/><path class="cls-1" d="M10.61,16.85H7s0,0,0-.06l2.3-4.08a0,0,0,0,1,.07,0l1.29,4A.07.07,0,0,1,10.61,16.85Z" transform="translate(0 0)"/><path class="cls-1" d="M9.79,11.9l2.39-4.24a.07.07,0,0,1,.12,0l2.41,4.24a.13.13,0,0,1,0,.06l-1.51,4.83a.08.08,0,0,1-.07.05H11.38a.08.08,0,0,1-.07-.05L9.79,12A.06.06,0,0,1,9.79,11.9Z" transform="translate(0 0)"/><path class="cls-1" d="M11.54,17.41H13s0,0,0,0l-.71,2.27a0,0,0,0,1-.06,0l-.7-2.27S11.52,17.41,11.54,17.41Z" transform="translate(0 0)"/></svg>