<svg id="Слой_1" data-name="Слой 1" xmlns="http://www.w3.org/2000/svg" xmlns:xlink="http://www.w3.org/1999/xlink" viewBox="0 0 24 24"><defs><style>.cls-1{fill:none;}.cls-2{fill:#282828;}.cls-3{opacity:0.6;}.cls-4{clip-path:url(#clip-path);}.cls-5{fill:#fff;}.cls-6{clip-path:url(#clip-path-2);}.cls-7{clip-path:url(#clip-path-3);}.cls-8{clip-path:url(#clip-path-4);}.cls-9{clip-path:url(#clip-path-5);}.cls-10{clip-path:url(#clip-path-6);}.cls-11{fill:#f3ba2f;}.cls-12{opacity:0.45;}.cls-13{clip-path:url(#clip-path-7);}.cls-14{opacity:0.8;}.cls-15{clip-path:url(#clip-path-8);}.cls-16{clip-path:url(#clip-path-9);}.cls-17{clip-path:url(#clip-path-10);}</style><clipPath id="clip-path" transform="translate(0 0)"><rect class="cls-1" x="6.14" y="9.63" width="11.73" height="6.13"/></clipPath><clipPath id="clip-path-2" transform="translate(0 0)"><rect class="cls-1" x="6.14" y="2.57" width="5.86" height="13.2"/></clipPath><clipPath id="clip-path-3" transform="translate(0 0)"><rect class="cls-1" x="12.01" y="2.57" width="5.86" height="13.2"/></clipPath><clipPath id="clip-path-4" transform="translate(0 0)"><rect class="cls-1" x="6.14" y="13.41" width="5.86" height="8.26"/></clipPath><clipPath id="clip-path-5" transform="translate(0 0)"><rect class="cls-1" x="12.01" y="13.41" width="5.87" height="8.26"/></clipPath><clipPath id="clip-path-6" transform="translate(0 0)"><rect class="cls-1" x="6.14" y="9.63" width="11.73" height="6.13"/></clipPath><clipPath id="clip-path-7" transform="translate(0 0)"><rect class="cls-1" x="6.14" y="2.57" width="5.86" height="13.2"/></clipPath><clipPath id="clip-path-8" transform="translate(0 0)"><rect class="cls-1" x="12" y="2.57" width="5.86" height="13.2"/></clipPath><clipPath id="clip-path-9" transform="translate(0 0)"><rect class="cls-1" x="6.14" y="13.41" width="5.86" height="8.26"/></clipPath><clipPath id="clip-path-10" transform="translate(0 0)"><rect class="cls-1" x="12" y="13.41" width="5.87" height="8.26"/></clipPath></defs><title>eth</title><circle class="cls-2" cx="12" cy="12" r="12"/><g class="cls-3"><g class="cls-4"><path class="cls-5" d="M12,9.63,6.14,12.3,12,15.76l5.86-3.46Z" transform="translate(0 0)"/></g></g><g class="cls-6"><path class="cls-5" d="M6.14,12.3,12,15.76V2.57Z" transform="translate(0 0)"/></g><g class="cls-7"><path class="cls-5" d="M12,2.57V15.76l5.86-3.46Z" transform="translate(0 0)"/></g><g class="cls-8"><path class="cls-5" d="M6.14,13.41,12,21.67V16.88Z" transform="translate(0 0)"/></g><g class="cls-9"><path class="cls-5" d="M12,16.88v4.79l5.86-8.26Z" transform="translate(0 0)"/></g><g class="cls-3"><g class="cls-10"><path class="cls-11" d="M12,9.63,6.14,12.3,12,15.76l5.87-3.46Z" transform="translate(0 0)"/></g></g><g class="cls-12"><g class="cls-13"><path class="cls-11" d="M6.14,12.3,12,15.76V2.57Z" transform="translate(0 0)"/></g></g><g class="cls-14"><g class="cls-15"><path class="cls-11" d="M12,2.57V15.76l5.87-3.46Z" transform="translate(0 0)"/></g></g><g class="cls-12"><g class="cls-16"><path class="cls-11" d="M6.14,13.41,12,21.67V16.88Z" transform="translate(0 0)"/></g></g><g class="cls-14"><g class="cls-17"><path class="cls-11" d="M12,16.88v4.79l5.87-8.26Z" transform="translate(0 0)"/></g></g></svg>