<svg height="512" viewBox="0 0 64 64" width="512" xmlns="http://www.w3.org/2000/svg"><g id="Filled_outline" data-name="Filled outline"><circle cx="32" cy="13" fill="#ffd782" r="10"/><g fill="#e97424"><path d="m33 6h2v3h-2z"/><path d="m29 6h2v3h-2z"/><path d="m29 17h2v3h-2z"/><path d="m33 17h2v3h-2z"/><path d="m35 14h-5a1 1 0 0 1 -1-1v-4a1 1 0 0 1 1-1h5a3 3 0 0 1 0 6zm-4-2h4a1 1 0 0 0 0-2h-4z"/><path d="m35 18h-5a1 1 0 0 1 -1-1v-4a1 1 0 0 1 1-1h5a3 3 0 0 1 0 6zm-4-2h4a1 1 0 0 0 0-2h-4z"/><path d="m27 8h3v2h-3z"/><path d="m27 16h4v2h-4z"/></g><path d="m11 41h42v20h-42z" fill="#8ec13f"/><path d="m46 45h-28a3 3 0 0 1 -3 3v6a3 3 0 0 1 3 3h28a3 3 0 0 1 3-3v-6a3 3 0 0 1 -3-3z" fill="#f4f4e6"/><path d="m48.832 41.555-1.664-1.11c1.853-2.778 3.832-6.982 3.832-10.445a19.12 19.12 0 0 0 -4.76-12.35l1.52-1.3a21.123 21.123 0 0 1 5.24 13.65c0 4.92-3.19 10.088-4.168 11.555z" fill="#195c85"/><path d="m11.42 34.2a21.133 21.133 0 0 1 -.42-4.2 20.533 20.533 0 0 1 10.5-17.866l1 1.732a18.552 18.552 0 0 0 -9.5 16.134 19.157 19.157 0 0 0 .38 3.8z" fill="#195c85"/><path d="m13 35a.994.994 0 0 1 -.514-.143l-5-3 1.03-1.714 4.142 2.485 2.486-4.143 1.714 1.03-3 5a1 1 0 0 1 -.858.485z" fill="#195c85"/><path d="m46.986 23.165-1.972-.33 1-6a1 1 0 0 1 1.151-.821l6 1-.33 1.972-5.013-.835z" fill="#195c85"/><circle cx="32" cy="51" fill="#ceac9a" r="6"/><path d="m29 20h2v-2h2v2h2v-2a2.987 2.987 0 0 0 2.22-5 2.987 2.987 0 0 0 -2.22-5v-2h-2v2h-2v-2h-2v2h-2v2h2v6h-2v2h2zm7-9a1 1 0 0 1 -1 1h-4v-2h4a1 1 0 0 1 1 1zm-5 3h4a1 1 0 0 1 0 2h-4z"/><path d="m17 57v1h30v-1a2 2 0 0 1 2-2h1v-8h-1a2 2 0 0 1 -2-2v-1h-30v1a2 2 0 0 1 -2 2h-1v8h1a2 2 0 0 1 2 2zm10-6a5 5 0 1 1 5 5 5.006 5.006 0 0 1 -5-5zm18.126-5a4.016 4.016 0 0 0 2.874 2.874v4.252a4.016 4.016 0 0 0 -2.874 2.874h-8.236a6.979 6.979 0 0 0 0-10zm-29.126 2.874a4.016 4.016 0 0 0 2.874-2.874h8.236a6.979 6.979 0 0 0 0 10h-8.236a4.016 4.016 0 0 0 -2.874-2.874z"/><path d="m47.449 40h-37.449v22h44v-22h-4.208c1.317-2.279 3.208-6.209 3.208-10a20.745 20.745 0 0 0 -3.7-11.6l3.533.588.33-1.972-6-1a1 1 0 0 0 -1.151.821l-1 6 1.972.33.619-3.711a18.759 18.759 0 0 1 3.397 10.544c0 3.289-1.785 7.23-3.551 10zm4.551 20h-40v-18h40z"/><path d="m7.485 31.857 5 3a1 1 0 0 0 1.372-.342l3-5-1.714-1.03-2.043 3.415q-.1-.946-.1-1.9a18.445 18.445 0 0 1 8.15-15.271 11 11 0 1 0 -.121-2.3 20.49 20.49 0 0 0 -10.029 17.571c0 .563.039 1.124.084 1.684l-2.569-1.541zm24.515-27.857a9 9 0 1 1 -9 9 9.011 9.011 0 0 1 9-9z"/></g></svg>