<svg id="Слой_1" data-name="Слой 1" xmlns="http://www.w3.org/2000/svg" viewBox="0 0 141.73 141.73"><defs><style>.cls-1{fill:#2c2c2c;}.cls-2{fill:#e2b73d;}</style></defs><title>1</title><circle class="cls-1" cx="70.87" cy="70.87" r="70.87"/><path class="cls-2" d="M61.91,99.36h-9.1V96.55h9.1a3,3,0,0,0,2.89-3.06v-46a3,3,0,0,0-2.89-3.07H29.37a3,3,0,0,0-2.89,3.07V93.49a3,3,0,0,0,2.89,3.06H39.92v2.81H29.37a5.79,5.79,0,0,1-5.69-5.87v-46a5.78,5.78,0,0,1,5.69-5.87H61.91a5.79,5.79,0,0,1,5.69,5.87V93.49A5.8,5.8,0,0,1,61.91,99.36Z" transform="translate(0.18)"/><rect class="cls-2" x="25.26" y="82.86" width="41.12" height="2.8"/><rect class="cls-2" x="76.29" y="82.86" width="41.12" height="2.8"/><circle class="cls-2" cx="45.82" cy="91.12" r="1.71"/><path class="cls-2" d="M54.16,58.76a8.07,8.07,0,0,1-.66,3.37,7.22,7.22,0,0,1-1.8,2.45,7.53,7.53,0,0,1-2.58,1.48,9.28,9.28,0,0,1-3.07.5H43.89v2.82h5.16V71H43.89v2.76a3,3,0,0,0,.12.9,1.14,1.14,0,0,0,.44.62,2.5,2.5,0,0,0,1,.39,11.74,11.74,0,0,0,1.7.19V77.1H37.68V75.88c.45,0,.87-.08,1.24-.13a2.74,2.74,0,0,0,.94-.29,1.53,1.53,0,0,0,.6-.61,2.31,2.31,0,0,0,.21-1.07V71H38.15V69.38h2.52V66.56H38.15V64.91h2.52V56.22A2.28,2.28,0,0,0,40.4,55a2,2,0,0,0-.72-.65,2.84,2.84,0,0,0-1-.28L37.57,54V52.75h9.6a8.78,8.78,0,0,1,2.82.43,6.83,6.83,0,0,1,2.21,1.21,5.5,5.5,0,0,1,1.45,1.89A5.91,5.91,0,0,1,54.16,58.76Zm-10.27-4.6V64.91h1.26a6.21,6.21,0,0,0,2.17-.36,4.66,4.66,0,0,0,1.65-1A4.75,4.75,0,0,0,50,61.85a6.26,6.26,0,0,0,.37-2.24,9.16,9.16,0,0,0-.23-2,4.85,4.85,0,0,0-.76-1.75A3.93,3.93,0,0,0,48,54.61a4.89,4.89,0,0,0-2.21-.45Z" transform="translate(0.18)"/><path class="cls-2" d="M99.93,60.52c0,2.72-3.93,2.39-5.17,2.38V58.09C96,58.09,99.94,57.68,99.93,60.52Zm1,7.5c0,3-4.71,2.63-6.21,2.63l0-5.31C96.25,65.34,101,64.89,100.94,68Zm3.12-8.56c-.24-2.86-2.5-3.83-5.35-4.11v-4H96.51v3.85l-1.77,0,0-3.88H92.54l0,4c-.48,0-1,0-1.41,0h-3v2.57s1.64,0,1.61,0A1.17,1.17,0,0,1,90.93,59l0,4.52a1.15,1.15,0,0,1,.24,0h-.24l0,6.32a.82.82,0,0,1-.84.8s-1.6,0-1.6,0L88,73.48h2.88l1.57,0v4h2.21v-4l1.77,0v4h2.21v-4c3.72-.22,6.33-1.23,6.66-5,.28-3.07-1-4.44-3.15-5a3.83,3.83,0,0,0,1.91-4Z" transform="translate(0.18)"/><path class="cls-2" d="M113.16,99.36H80.62a5.8,5.8,0,0,1-5.69-5.87v-46a5.79,5.79,0,0,1,5.69-5.87h9.1v2.8h-9.1a3,3,0,0,0-2.89,3.07V93.49a3,3,0,0,0,2.89,3.06h32.54a3,3,0,0,0,2.89-3.06v-46a3,3,0,0,0-2.89-3.07H102.61v-2.8h10.55a5.78,5.78,0,0,1,5.69,5.87V93.49A5.79,5.79,0,0,1,113.16,99.36Z" transform="translate(0.18)"/><circle class="cls-2" cx="97.19" cy="91.12" r="1.71"/><path class="cls-2" d="M55.52,120c9,5.44,19.37,3.92,27.74-1.86l-1.71-.45,3.34,5.66a1.26,1.26,0,0,0,2.16,0l8.88-16.57a1.27,1.27,0,0,0-1.08-1.88l-18.8-.2A1.26,1.26,0,0,0,75,106.62c.69,1.17,2.5,3.14,2.64,4.45-.17-1.55-.18-.13-.94.19a27.18,27.18,0,0,1-3.46,1.5,21.82,21.82,0,0,1-7.81.44c-9.41-.93-15.65-6.92-19.23-15.29-.63-1.47-2.78-.2-2.15,1.26,3.24,7.6,8.56,13.49,16.74,15.73,6.23,1.71,14.92,1.95,19.1-3.67a1.21,1.21,0,0,0,0-1.26l-2.73-4.61-1.08,1.88,18.8.2-1.08-1.88-8.88,16.57h2.16l-3.35-5.66A1.27,1.27,0,0,0,82,116c-7.63,5.28-16.89,6.87-25.21,1.86A1.25,1.25,0,0,0,55.52,120Z" transform="translate(0.18)"/><path class="cls-2" d="M86.67,21.48c-9-5.44-19.37-3.93-27.74,1.86l1.71.44-3.35-5.66a1.26,1.26,0,0,0-2.15,0L46.26,34.69a1.26,1.26,0,0,0,1.08,1.88l18.79.2a1.26,1.26,0,0,0,1.08-1.88c-.69-1.16-2.49-3.13-2.63-4.44.17,1.54.18.13.94-.19A26.63,26.63,0,0,1,69,28.75a22,22,0,0,1,7.81-.43c9.4.92,15.64,6.92,19.22,15.28.63,1.48,2.79.21,2.16-1.26-3.25-7.59-8.56-13.48-16.74-15.73-6.23-1.71-14.92-1.94-19.1,3.68a1.21,1.21,0,0,0,0,1.26l2.72,4.61,1.08-1.89-18.79-.2L48.42,36l8.87-16.56H55.14l3.34,5.66a1.26,1.26,0,0,0,1.71.44c7.64-5.27,16.89-6.86,25.22-1.85a1.25,1.25,0,0,0,1.26-2.16Z" transform="translate(0.18)"/></svg>