<svg id="Слой_1" data-name="Слой 1" xmlns="http://www.w3.org/2000/svg" viewBox="0 0 141.73 141.73"><defs><style>.cls-1{fill:#2c2c2c;}.cls-2{fill:#e2b73d;}</style></defs><title>faq2</title><circle class="cls-1" cx="70.87" cy="70.87" r="70.87"/><path class="cls-2" d="M71,95.34A18.66,18.66,0,1,1,89.63,76.68,18.68,18.68,0,0,1,71,95.34Zm0-34.66a16,16,0,1,0,16,16A16,16,0,0,0,71,60.68Z" transform="translate(0 0)"/><path class="cls-2" d="M101.14,110H40.05A15.48,15.48,0,0,1,24.59,94.54V45A15.47,15.47,0,0,1,40.05,29.55h61.09A15.47,15.47,0,0,1,116.6,45V94.54A15.48,15.48,0,0,1,101.14,110ZM40.05,32.2A12.81,12.81,0,0,0,27.25,45V94.54a12.81,12.81,0,0,0,12.8,12.8h61.09a12.81,12.81,0,0,0,12.8-12.8V45a12.81,12.81,0,0,0-12.8-12.8Z" transform="translate(0 0)"/><path class="cls-2" d="M88.91,44.19A5.14,5.14,0,1,1,94,39.05,5.15,5.15,0,0,1,88.91,44.19Zm0-7.61a2.48,2.48,0,1,0,2.47,2.47A2.48,2.48,0,0,0,88.91,36.58Z" transform="translate(0 0)"/><path class="cls-2" d="M101.35,44.19a5.14,5.14,0,1,1,5.13-5.14A5.14,5.14,0,0,1,101.35,44.19Zm0-7.61a2.48,2.48,0,1,0,2.47,2.47A2.48,2.48,0,0,0,101.35,36.58Z" transform="translate(0 0)"/><rect class="cls-2" x="25.92" y="46.66" width="89.34" height="2.66"/><path class="cls-2" d="M64.48,84.86,79.11,70.22a1.18,1.18,0,0,0-1.67-1.67L62.8,83.18a1.19,1.19,0,0,0,1.68,1.68Z" transform="translate(0 0)"/><path class="cls-2" d="M62.93,70.35,77.56,85a1.19,1.19,0,0,0,1.68-1.68L64.61,68.67a1.19,1.19,0,0,0-1.68,1.68Z" transform="translate(0 0)"/></svg>