<svg id="Слой_1" data-name="Слой 1" xmlns="http://www.w3.org/2000/svg" viewBox="0 0 141.73 141.73"><defs><style>.cls-1{fill:#2c2c2c;}.cls-2{fill:#e2b73d;}</style></defs><title>faq3</title><circle class="cls-1" cx="70.87" cy="70.87" r="70.87"/><path class="cls-2" d="M71.25,120.39a49.53,49.53,0,1,1,49.53-49.52A49.58,49.58,0,0,1,71.25,120.39Zm0-96.35a46.83,46.83,0,1,0,46.83,46.83A46.88,46.88,0,0,0,71.25,24Z" transform="translate(0 0)"/><path class="cls-2" d="M89.82,102.81H53.21V39.45H89.82Zm-33.91-2.7H87.12v-58H55.91Z" transform="translate(0 0)"/><rect class="cls-2" x="69.88" y="22.64" width="2.7" height="95.68" transform="translate(-25.7 45.06) rotate(-30)"/><rect class="cls-2" x="54.56" y="49.84" width="33.91" height="2.7"/><rect class="cls-2" x="54.51" y="90.2" width="33.91" height="2.7"/><path class="cls-2" d="M71.26,99.13a2.83,2.83,0,1,1,2.83-2.83A2.83,2.83,0,0,1,71.26,99.13Zm0-4.66a1.83,1.83,0,1,0,1.83,1.83A1.83,1.83,0,0,0,71.26,94.47Z" transform="translate(0 0)"/></svg>