<svg id="Слой_1" data-name="Слой 1" xmlns="http://www.w3.org/2000/svg" viewBox="0 0 141.73 141.73"><defs><style>.cls-1{fill:#2c2c2c;}.cls-2{fill:#e2b73d;}</style></defs><title>faq4</title><circle class="cls-1" cx="70.87" cy="70.87" r="70.87"/><path class="cls-2" d="M44.85,50.35H34.72a3.12,3.12,0,0,1-3.12-3.12V28.84a3.12,3.12,0,0,1,3.12-3.12H44.85A3.12,3.12,0,0,1,48,28.84V47.23A3.12,3.12,0,0,1,44.85,50.35ZM34.72,28.52a.32.32,0,0,0-.32.32V47.23a.32.32,0,0,0,.32.32H44.85a.32.32,0,0,0,.32-.32V28.84a.32.32,0,0,0-.32-.32Z" transform="translate(-0.01)"/><path class="cls-2" d="M69.08,51.57c-4.23,0-8.68-.14-11.08-.3a11.37,11.37,0,0,1-2.67-.38,11.1,11.1,0,0,1-2.59-1.57,7.07,7.07,0,0,0-.67-.26L51.82,49a17.29,17.29,0,0,0-4.46-.14l-.19-2.79c1-.07,4.19-.24,5.64.3l.19.07a5,5,0,0,1,1.46.69,9.19,9.19,0,0,0,1.81,1.14,9.46,9.46,0,0,0,1.84.22c5.75.38,17.47.45,19.93-.14.7-.16,1.17-1.57,1.58-4.7.18-1.37.37-3.73.41-5.15,0-.27,0-.58,0-.9,0-1,.18-4.06-.38-4.56-1.26-.46-6-.71-12.17-.6a2.72,2.72,0,0,1-2.35-1.32L61.59,25A18.34,18.34,0,0,0,58,26.54a41.28,41.28,0,0,0-3.27,2.89l-2,2-.13.12a3.13,3.13,0,0,1-2.2.89H47.27v-2.8h3.11a.35.35,0,0,0,.25-.1l.13-.12,2-2a46.16,46.16,0,0,1,3.55-3.13,20.13,20.13,0,0,1,4.44-2A2.69,2.69,0,0,1,64,23.5l3.6,6.12c4-.07,10.88-.05,13.16.8,2.43.9,2.27,4.59,2.15,7.29,0,.3,0,.59,0,.85,0,1.53-.24,4-.43,5.43-.46,3.49-1.06,6.43-3.71,7.07A59.15,59.15,0,0,1,69.08,51.57ZM52.67,49.26h0Z" transform="translate(-0.01)"/><circle class="cls-2" cx="39.78" cy="34.17" r="1.49"/><path class="cls-2" d="M69.51,92.6A21,21,0,0,1,64.6,92a20.26,20.26,0,0,1-5.35-2.12,19.7,19.7,0,0,1-4.66-3.74A16.9,16.9,0,0,1,51.23,81a17.11,17.11,0,0,1-1.13-5.8,23.59,23.59,0,0,1,1.29-8.68,43.8,43.8,0,0,1,2.81-6.12c.59-1.15,1.56-3,2.87-5.16,1.08-1.81,2.24-3.61,3.44-5.35l2.22,1.54c-1.17,1.68-2.29,3.43-3.34,5.19-1.27,2.13-2.21,3.9-2.78,5A41.73,41.73,0,0,0,54,67.33,20.25,20.25,0,0,0,52.8,75a13.32,13.32,0,0,0,3.79,9.32,16.75,16.75,0,0,0,4,3.22,17.8,17.8,0,0,0,4.63,1.84,18.59,18.59,0,0,0,5.79.43A16.11,16.11,0,0,0,77,88.37a15.54,15.54,0,0,0,5.1-3.9,16.3,16.3,0,0,0,2.61-4.25A18.16,18.16,0,0,0,86,72.78a19.13,19.13,0,0,0-1.4-6.59c-.23-.57-1.22-2.32-2.85-5.21-1.41-2.51-2.19-3.89-2.6-4.56a55,55,0,0,0-4-5.6l2.1-1.7A59.94,59.94,0,0,1,81.4,55c.45.72,1.19,2,2.67,4.66,1.91,3.41,2.7,4.82,3,5.52a21.72,21.72,0,0,1,1.6,7.53,21.25,21.25,0,0,1-1.51,8.57,19.55,19.55,0,0,1-3.05,5,18.29,18.29,0,0,1-6,4.58,19.19,19.19,0,0,1-6.87,1.73C70.66,92.58,70.09,92.6,69.51,92.6Z" transform="translate(-0.01)"/><path class="cls-2" d="M72.38,66.59c0,2.51-3.62,2.2-4.76,2.19V64.35C68.78,64.36,72.39,64,72.38,66.59Zm.92,6.89c0,2.76-4.33,2.43-5.71,2.42l0-4.88C69,71,73.31,70.61,73.3,73.48Zm2.87-7.86C76,63,73.88,62.1,71.25,61.84V58.19h-2v3.55l-1.63,0,0-3.57h-2l0,3.64h-4.1v2.37s1.51,0,1.48,0a1.09,1.09,0,0,1,1.17,1l0,4.15.22,0h-.22l0,5.81a.75.75,0,0,1-.77.74s-1.47,0-1.47,0l-.42,2.65h2.65l1.45,0v3.68h2V78.58l1.63,0,0,3.63h2V78.57c3.42-.2,5.82-1.13,6.13-4.63.25-2.82-1-4.08-2.9-4.6a3.5,3.5,0,0,0,1.75-3.72Z" transform="translate(-0.01)"/><path class="cls-2" d="M73.91,32.46l-2.06-1.74,1.06-1.25,4.37-6.26a20.54,20.54,0,0,0,2.2-3.64l-.4.21a5.22,5.22,0,0,1-2.11.78,9.45,9.45,0,0,1-3.54-.82c-.38-.17-.84-.43-1.32-.71a10.29,10.29,0,0,0-1.53-.79,13.14,13.14,0,0,0-2.81-.41,10.39,10.39,0,0,0-2.57.42A16.28,16.28,0,0,0,63,19.32a9.14,9.14,0,0,0-1.07.75A11.74,11.74,0,0,0,62.81,22l.68,1.16,3.36,5.42L64.56,30l-4.07-6.63c-1.06-1.76-1.51-3.1-1.31-4s1-1.52,2.41-2.37a19,19,0,0,1,2.74-1.29,12.72,12.72,0,0,1,3.39-.57,14.12,14.12,0,0,1,3.69.54,11.07,11.07,0,0,1,2,1c.41.23.82.47,1.08.59a7.36,7.36,0,0,0,2.28.59,6.91,6.91,0,0,0,1-.47,4.86,4.86,0,0,1,2.29-.78,2.49,2.49,0,0,1,2.23,1.54c.48,1.79-1.59,4.92-2.86,6.63L75,31.17Z" transform="translate(-0.01)"/><path class="cls-2" d="M93.29,127.45a4.33,4.33,0,0,1-3.09-1.29l-3.43-3.42a4.39,4.39,0,0,1,0-6.2l11.76-11.76a4.39,4.39,0,0,1,6.2,0l3.42,3.43a4.39,4.39,0,0,1,0,6.2L96.4,126.16A4.38,4.38,0,0,1,93.29,127.45Zm8.34-21.15a1.57,1.57,0,0,0-1.12.46L88.75,118.52a1.59,1.59,0,0,0,0,2.24l3.43,3.42a1.58,1.58,0,0,0,2.24,0l11.75-11.75a1.59,1.59,0,0,0,0-2.25l-3.42-3.42A1.57,1.57,0,0,0,101.63,106.3Z" transform="translate(-0.01)"/><circle class="cls-2" cx="101.01" cy="111.92" r="1.26"/><path class="cls-2" d="M71.84,109.63h6.85a1.25,1.25,0,0,0,0-2.5H71.84a1.25,1.25,0,0,0,0,2.5Z" transform="translate(-0.01)"/><path class="cls-2" d="M100.15,105.14c-3-3-6-7.63-10.47-8.25-3.51-.48-8.08-.51-11.07,1.29-3.39,2-6,1.13-9.76,1.6-1.8.23-3.55.79-4.51,2.46-3.34,5.79,3.32,7.5,7.4,7.36,1.61-.06,1.62-2.56,0-2.5a10.41,10.41,0,0,1-3.25-.09c-3.13-1.1-.94-4.72,1.8-4.81,2-.06,4.22.38,6.26,0,2.81-.58,4.26-2.66,7.32-2.77,2.36-.09,5.35-.38,7.47.68,2.71,1.36,5,4.69,7,6.84,1.12,1.15,2.89-.62,1.76-1.77Z" transform="translate(-0.01)"/><path class="cls-2" d="M74.54,117.79a44.11,44.11,0,0,1-8.78-.62,9.78,9.78,0,0,1-2.71-1.33c-2.78-2-7.46-7.36-8-8-.72-.83-2-2.42-2.69-3.37-.16-.22-.36-.52-.58-.85A24.69,24.69,0,0,0,50,101.12a3.54,3.54,0,0,0-.27-.26A8.84,8.84,0,0,1,46.65,96a3.68,3.68,0,0,1,.22-2.41c1-2,4.55-3.11,8.11-1.43a13.48,13.48,0,0,1,2.91,2.09A16.24,16.24,0,0,1,60,97.09l.19.36a9.54,9.54,0,0,0,.74,1.26,6.37,6.37,0,0,0,1.11.66c.25.13.48.25.66.36.85.5,2.92,2.08,3.15,2.26l-1.7,2.22c-.6-.46-2.27-1.72-2.87-2.07-.15-.09-.33-.18-.53-.28a6.77,6.77,0,0,1-1.87-1.24,9.54,9.54,0,0,1-1.17-1.87l-.17-.32a13.48,13.48,0,0,0-1.61-2.24,10.94,10.94,0,0,0-2.13-1.53c-2.4-1.14-4.2-.26-4.42.16a1.89,1.89,0,0,0,0,.68,6.25,6.25,0,0,0,2.19,3.3l.41.4a26.25,26.25,0,0,1,2.13,2.91c.2.31.39.59.54.8.57.82,1.82,2.35,2.5,3.13a63.6,63.6,0,0,0,7.51,7.53,7.54,7.54,0,0,0,1.71.88c5.28,1.24,22.22,0,22.39,0l.21,2.79C88.54,117.24,81.17,117.79,74.54,117.79Z" transform="translate(-0.01)"/></svg>