<svg id="Слой_1" data-name="Слой 1" xmlns="http://www.w3.org/2000/svg" viewBox="0 0 141.73 141.73"><defs><style>.cls-1{fill:#2c2c2c;}.cls-2{fill:#e2b73d;}</style></defs><title>faq5</title><circle class="cls-1" cx="70.87" cy="70.87" r="70.87"/><path class="cls-2" d="M107.48,116.51H35.05a3.64,3.64,0,0,1-3.64-3.64v-2.34a3.65,3.65,0,0,1,3.64-3.64h72.43a3.65,3.65,0,0,1,3.64,3.64v2.34A3.64,3.64,0,0,1,107.48,116.51Zm-72.43-7a1,1,0,0,0-1,1v2.34a1,1,0,0,0,1,1h72.43a1,1,0,0,0,1-1v-2.34a1,1,0,0,0-1-1Z" transform="translate(0 0)"/><path class="cls-2" d="M44.49,107.66H41.83V92.27a3.25,3.25,0,0,1,1-2.35L60.3,73.5a.39.39,0,0,0,.11-.27V68.74a.31.31,0,0,0-.1-.24L42.69,51.31a2.83,2.83,0,0,1-.86-2V34.34h2.66V49.28a.17.17,0,0,0,0,.12L62.17,66.6a3,3,0,0,1,.9,2.14v4.49a3,3,0,0,1-1,2.2L44.67,91.86a.52.52,0,0,0-.18.41Z" transform="translate(0 0)"/><path class="cls-2" d="M100.45,107.66H97.79V92.27a.55.55,0,0,0-.17-.41L80.16,75.43a3,3,0,0,1-1-2.2V68.74a3,3,0,0,1,.91-2.14L97.74,49.4a.13.13,0,0,0,.05-.12V34.34h2.66V49.28a2.86,2.86,0,0,1-.85,2L82,68.5a.35.35,0,0,0-.1.24v4.49a.36.36,0,0,0,.12.27L99.44,89.92a3.25,3.25,0,0,1,1,2.35Z" transform="translate(0 0)"/><path class="cls-2" d="M107.25,34.63H34.81A3.65,3.65,0,0,1,31.17,31V28.65A3.65,3.65,0,0,1,34.81,25h72.44a3.65,3.65,0,0,1,3.64,3.64V31A3.65,3.65,0,0,1,107.25,34.63Zm-72.44-7a1,1,0,0,0-1,1V31a1,1,0,0,0,1,1h72.44a1,1,0,0,0,1-1V28.65a1,1,0,0,0-1-1Z" transform="translate(0 0)"/><path class="cls-2" d="M78.9,101.19H63.16a2.17,2.17,0,0,1-1.55-3.7l7.87-8a2.22,2.22,0,0,1,3.1,0l7.87,8a2.17,2.17,0,0,1-1.55,3.7ZM64.31,98.53H77.75L71,91.69Z" transform="translate(0 0)"/><path class="cls-2" d="M71,65.53a3.08,3.08,0,0,1-2.1-.81L53.44,50.28a2.71,2.71,0,0,1-.71-3.05,3,3,0,0,1,2.81-1.86h31a3,3,0,0,1,2.81,1.86,2.71,2.71,0,0,1-.71,3.05L73.13,64.72A3.08,3.08,0,0,1,71,65.53ZM55.54,48c-.26,0-.33.14-.34.17s0,.06,0,.13L70.74,62.78a.48.48,0,0,0,.58,0L86.81,48.33c.07-.07.06-.09,0-.13s-.08-.17-.34-.17Z" transform="translate(0 0)"/><path class="cls-2" d="M72.13,83.14V64.21a1.19,1.19,0,0,0-2.37,0V83.14a1.19,1.19,0,0,0,2.37,0Z" transform="translate(0 0)"/></svg>