<svg id="Слой_1" data-name="Слой 1" xmlns="http://www.w3.org/2000/svg" viewBox="0 0 141.73 141.73"><defs><style>.cls-1{fill:#2c2c2c;}.cls-2,.cls-3{fill:#e2b73d;}.cls-3{font-size:20.17px;stroke:#e2b73d;stroke-miterlimit:10;stroke-width:0.25px;font-family:MyriadPro-Regular, Myriad Pro;}</style></defs><title>faq6</title><circle class="cls-1" cx="70.87" cy="70.87" r="70.87"/><path class="cls-2" d="M70.54,70.63a16.43,16.43,0,0,1-2.14-.13,16.06,16.06,0,0,1-4.12-1.15,15.78,15.78,0,0,1-4.66-3.22h0a26.82,26.82,0,0,1-4-5A28.92,28.92,0,0,1,52.49,56c-.11-.29-.21-.57-.3-.83-.34-.94-.52-1.41-.94-1.67a1.08,1.08,0,0,0-.62-.14,3.14,3.14,0,0,1-1.76-.5C47.15,51.76,47,49.41,47,46.46c0-3.65.41-4.64,1.36-5.36a4.76,4.76,0,0,1,1-.59,1.28,1.28,0,0,0,.52-.32,8.27,8.27,0,0,0,.57-2.79l.12-.94a17.66,17.66,0,0,1,2.7-7,21.39,21.39,0,0,1,4.42-5.34,18.73,18.73,0,0,1,5.57-3.45,19.09,19.09,0,0,1,7.15-1.26,19.56,19.56,0,0,1,7.2,1.13,19.17,19.17,0,0,1,6.88,4.43,18.65,18.65,0,0,1,3.78,4.84,17.75,17.75,0,0,1,2,5.66c.11.66.28,1.31.46,2a18.26,18.26,0,0,1,.6,3s0,.1,0,.12.08,0,.15,0a4.12,4.12,0,0,1,.63.25c1.44.74,1.74,2.39,1.91,3.38.1.54.1.88-.16,3.5a12.35,12.35,0,0,1-.4,2.77A7.68,7.68,0,0,1,92,53.11a6.91,6.91,0,0,1-1.75,1.45,5.72,5.72,0,0,1-.88.4l-.15.06c-.3.13-.54.85-.84,1.77-.13.38-.27.8-.43,1.25a17.31,17.31,0,0,1-1.7,3.62,19.19,19.19,0,0,1-2.77,3.22A20.81,20.81,0,0,1,81,67.22a16.91,16.91,0,0,1-3.6,2.08,17.46,17.46,0,0,1-4.65,1.2A18,18,0,0,1,70.54,70.63Zm-9.11-6.44a13.35,13.35,0,0,0,3.92,2.73,13,13,0,0,0,3.41.94,15.4,15.4,0,0,0,7.6-1,14.12,14.12,0,0,0,3-1.75A18.59,18.59,0,0,0,81.61,63a17.57,17.57,0,0,0,2.45-2.81,14.52,14.52,0,0,0,1.43-3.1c.16-.42.29-.81.41-1.17.49-1.47.91-2.74,2.26-3.36l.34-.13a3.48,3.48,0,0,0,.49-.22,3.91,3.91,0,0,0,1-.87,5.13,5.13,0,0,0,.9-1.68,12.47,12.47,0,0,0,.29-2.22,17.87,17.87,0,0,0,.19-2.77c-.07-.37-.25-1.35-.52-1.49a1,1,0,0,0-.22-.08,2.73,2.73,0,0,1-1.44-.92,2.84,2.84,0,0,1-.57-1.51,15,15,0,0,0-.53-2.6,22.38,22.38,0,0,1-.5-2.25A15.21,15.21,0,0,0,85.91,31a16,16,0,0,0-3.26-4.17A16.15,16.15,0,0,0,70.42,22a16.52,16.52,0,0,0-6.2,1.08,16,16,0,0,0-4.8,3,18.42,18.42,0,0,0-3.86,4.67,15.1,15.1,0,0,0-2.36,6l-.12.92c-.22,1.9-.38,3.27-1.18,4.21a3.83,3.83,0,0,1-1.45,1,2.66,2.66,0,0,0-.51.27c-.07.08-.35.6-.32,3.23,0,1.14,0,3.79.69,4.21.08,0,.11.06.42.07a3.6,3.6,0,0,1,1.9.53,5.09,5.09,0,0,1,2.06,3L55,55a28.05,28.05,0,0,0,2.82,4.55,24.41,24.41,0,0,0,3.64,4.6Z" transform="translate(0 0)"/><path class="cls-2" d="M70.45,57.43A12.38,12.38,0,1,1,82.83,45.05,12.39,12.39,0,0,1,70.45,57.43Zm0-22.1a9.72,9.72,0,1,0,9.72,9.72A9.73,9.73,0,0,0,70.45,35.33Z" transform="translate(0 0)"/><path class="cls-2" d="M65.08,94.92a2.21,2.21,0,0,1-1.74-.85l-9.5-12.3a2.51,2.51,0,0,1,0-3l4.41-5.85a2.35,2.35,0,0,1,1.6-.93,2.4,2.4,0,0,1,1.77.48l10.51,8.22-5,12.87a2.2,2.2,0,0,1-1.73,1.37A1.73,1.73,0,0,1,65.08,94.92ZM56,80.24l8.93,11.55,4-10.26L60.19,74.7Z" transform="translate(0 0)"/><path class="cls-2" d="M76,94.92a1.63,1.63,0,0,1-.31,0,2.17,2.17,0,0,1-1.73-1.37l-5-12.87,10.51-8.22A2.41,2.41,0,0,1,81.21,72a2.35,2.35,0,0,1,1.59.93l4.41,5.85a2.49,2.49,0,0,1,0,3l-9.5,12.3A2.21,2.21,0,0,1,76,94.92ZM72.11,81.53l4,10.26L85,80.24,80.84,74.7Z" transform="translate(0 0)"/><rect class="cls-2" x="62.51" y="68.19" width="2.66" height="7.88"/><rect class="cls-2" x="76.12" y="68.19" width="2.66" height="7.88"/><path class="cls-2" d="M64.51,112.11H27.69l-.09-1.23a45,45,0,0,1-.12-4.93l0-1.15a22,22,0,0,1,1.26-8.11,22.93,22.93,0,0,1,4.85-7.85,26,26,0,0,1,7.44-5.62l.15-.08a30,30,0,0,1,5.46-2.23,31.57,31.57,0,0,1,6.11-1.15c.5-.05,1-.1,1.37-.16l.38,2.63-1.46.18a28.4,28.4,0,0,0-5.61,1,27.55,27.55,0,0,0-5,2l-.17.08a23.62,23.62,0,0,0-6.69,5.06,20.42,20.42,0,0,0-4.31,7,19.8,19.8,0,0,0-1.11,7.27l0,1.16c0,1.14,0,2.29,0,3.43H64.51Z" transform="translate(0 0)"/><path class="cls-2" d="M113.14,112.11H76.32v-2.66h34.34c0-1.14.07-2.29,0-3.43l0-1.16a19.71,19.71,0,0,0-1.11-7.26,20.18,20.18,0,0,0-4.3-7,23.62,23.62,0,0,0-6.7-5.06l-.16-.08a27.92,27.92,0,0,0-5-2,28.27,28.27,0,0,0-5.61-1l-1.46-.18.38-2.63c.42.06.88.11,1.38.16a31.48,31.48,0,0,1,6.1,1.15,30,30,0,0,1,5.47,2.23l.15.08a26.11,26.11,0,0,1,7.43,5.62,22.93,22.93,0,0,1,4.85,7.85,22.05,22.05,0,0,1,1.27,8.11l0,1.15a44.9,44.9,0,0,1-.12,4.93Z" transform="translate(0 0)"/><path class="cls-2" d="M70.58,120.61a2.51,2.51,0,0,1-1.65-.62l-4.78-4.23a2.62,2.62,0,0,1-.86-2.32L66.72,88.6l2.2-5.95,1.59.59,1.61-.58,2.19,6.12,4,25.16a2.28,2.28,0,0,1-.89,2.2l-5.38,4A2.51,2.51,0,0,1,70.58,120.61ZM69.26,89.39,65.92,113.8l4.67,4.11,5.08-3.77-4-24.81L70.51,86Z" transform="translate(0 0)"/><rect class="cls-2" x="60.08" y="71.44" width="3.64" height="2.66" transform="translate(-21.74 26.59) rotate(-20.71)"/><rect class="cls-2" x="77.64" y="70.79" width="2.66" height="3.64" transform="translate(-16.88 120.81) rotate(-69.29)"/><text class="cls-3" transform="translate(66.5 52.13)">?</text></svg>