<svg id="Слой_1" data-name="Слой 1" xmlns="http://www.w3.org/2000/svg" viewBox="0 0 24 24"><defs><style>.cls-1{fill:#282828;}.cls-2{fill:#f3ba2f;}</style></defs><title>pax</title><circle class="cls-1" cx="12" cy="12" r="12"/><path class="cls-2" d="M3.67,14.09a3.6,3.6,0,0,1,.26-1.31c.14-.38.22-.52.57-1.35a6.85,6.85,0,0,0,.38-1c.14-.6.07-.7.19-1.29A6.81,6.81,0,0,1,5.94,6.3a2.34,2.34,0,0,1,1.36-1,3.64,3.64,0,0,1,1.28-.18h.54A.63.63,0,0,0,9.45,5a2.78,2.78,0,0,0,.3-.3,2.23,2.23,0,0,1,1.41-.62,4.4,4.4,0,0,1,2.46.67A13.72,13.72,0,0,0,15,5.53a7,7,0,0,0,1.63.38c.59.09.82.15,1.48.3a2.23,2.23,0,0,1,1,.39,1.91,1.91,0,0,1,.59,1.06,3.13,3.13,0,0,1,0,1.58,2.71,2.71,0,0,0-.21,1,.86.86,0,0,0,.17.46,4,4,0,0,1,.5,1.27A3.16,3.16,0,0,1,20,13.85a2.67,2.67,0,0,1-1.21,1.29c-.71.4-.9.39-1.86.94a11,11,0,0,0-1.67,1.19c-.73.63-.78.83-1.53,1.41a4.3,4.3,0,0,1-1.29.81,3.48,3.48,0,0,1-1.72.15A4.14,4.14,0,0,1,8.93,19c-.62-.49-1.14-.93-1.38-1.1a2.16,2.16,0,0,0-.84-.22,3.6,3.6,0,0,1-2.19-1c-.69-.79-.75-.89-.83-1.5A6.39,6.39,0,0,1,3.67,14.09Z" transform="translate(0.01 -0.01)"/><circle class="cls-1" cx="11.56" cy="11.77" r="4.39"/></svg>