<svg id="Слой_1" data-name="Слой 1" xmlns="http://www.w3.org/2000/svg" viewBox="0 0 24 24"><defs><style>.cls-1{fill:#282828;}.cls-2{fill:#f3ba2f;}</style></defs><title>usdt</title><path id="path0_fill" data-name="path0 fill" class="cls-1" d="M12,0A12,12,0,1,1,0,12,12,12,0,0,1,12,0Z"/><g id="Vector"><path id="path1_fill" data-name="path1 fill" class="cls-2" d="M13.67,10V8.22h4V5.54H6.75V8.22h4V10C7.5,10.13,5,10.77,5,11.55S7.5,13,10.76,13.12v5.62h2.91V13.12c3.26-.15,5.71-.8,5.71-1.57S16.93,10.13,13.67,10Zm0,2.66c-.08,0-.5,0-1.44,0-.75,0-1.28,0-1.46,0h0c-2.89-.13-5-.63-5-1.23s2.15-1.1,5-1.23v2c.19,0,.72,0,1.47,0,.9,0,1.35,0,1.43,0v-2c2.88.13,5,.63,5,1.23s-2.15,1.1-5,1.23"/></g></svg>