<svg id="Слой_1" data-name="Слой 1" xmlns="http://www.w3.org/2000/svg" viewBox="0 0 24 24"><defs><style>.cls-1{fill:#282828;}.cls-2{fill:#f3ba2f;}</style></defs><title>waves</title><circle class="cls-1" cx="12" cy="12" r="12"/><path class="cls-2" d="M17.47,8.44,13.3,4.26a1.87,1.87,0,0,0-2.63,0L6.5,8.43a.62.62,0,0,0,0,.87l1.27,1.27.84.78a.65.65,0,0,0,.88,0l1.68-1.56a1.2,1.2,0,0,1,1.64,0l1.68,1.56a.65.65,0,0,0,.88,0l.84-.78,1.26-1.26a.62.62,0,0,0,0-.87"/><path class="cls-2" d="M4.12,13.43,10.67,20a1.86,1.86,0,0,0,2.62,0l6.55-6.55c1.13-1.14.33-1.47-.5-2.26l-1-1a.65.65,0,0,0-.89,0l-1.68,1.56a1.22,1.22,0,0,1-1.64,0L12.43,10.2a.65.65,0,0,0-.88,0L9.87,11.76a1.22,1.22,0,0,1-1.64,0L6.55,10.2a.66.66,0,0,0-.89,0l-.94.87c-.87.81-1.78,1.18-.6,2.36"/></svg>