<?xml version="1.0" encoding="utf-8"?>
<!-- Generator: Adobe Illustrator 22.0.1, SVG Export Plug-In . SVG Version: 6.00 Build 0)  -->
<svg version="1.1" id="Слой_1" xmlns="http://www.w3.org/2000/svg" xmlns:xlink="http://www.w3.org/1999/xlink" x="0px" y="0px"
	 viewBox="0 0 24 24" style="enable-background:new 0 0 24 24;" xml:space="preserve">
<style type="text/css">
	.st0{fill:#282828;}
	.st1{fill:#F3BA2F;}
	.st2{clip-path:url(#SVGID_2_);}
</style>
<title>xrp</title>
<circle class="st0" cx="12" cy="12" r="12"/>
<path class="st1" d="M13.1,4.6c-1,0.6-1.6,1.7-1.6,2.8c0,0.6,0.2,1.2,0.6,1.8c0.4,0.6,0.2,1.3-0.4,1.7c0,0-0.1,0-0.1,0.1
	c-0.6,0.3-1.4,0.1-1.8-0.5C9.5,9.9,9,9.5,8.5,9.1c-1-0.6-2.3-0.6-3.3,0C3.7,10,3.1,12,4.1,13.6c0.3,0.5,0.7,0.9,1.2,1.2
	c1,0.6,2.3,0.6,3.3,0c0.5-0.3,1-0.8,1.3-1.3c0.3-0.6,1.1-0.8,1.7-0.5c0,0,0,0,0.1,0c0.6,0.4,0.8,1.1,0.5,1.7
	c-0.3,0.5-0.5,1.1-0.5,1.8c0,1.2,0.6,2.2,1.6,2.8c1,0.6,2.3,0.6,3.3,0c1.6-0.9,2.1-2.9,1.2-4.5c-0.3-0.5-0.7-0.9-1.2-1.2
	c-0.6-0.3-1.2-0.4-1.8-0.4c-0.7,0.1-1.3-0.5-1.4-1.2c-0.1-0.7,0.5-1.3,1.2-1.4c0.1,0,0.2,0,0.2,0c0.6,0,1.3-0.1,1.8-0.4
	c1.6-0.9,2.1-2.9,1.2-4.5c-0.3-0.5-0.7-0.9-1.2-1.2C15.4,4,14.2,4,13.1,4.6"/>
<g>
	<defs>
		<path id="SVGID_1_" d="M13.1,4.6c-1,0.6-1.6,1.7-1.6,2.8c0,0.6,0.2,1.2,0.6,1.8c0.4,0.6,0.2,1.3-0.4,1.7c0,0-0.1,0-0.1,0.1
			c-0.6,0.3-1.4,0.1-1.8-0.5C9.5,9.9,9,9.5,8.5,9.1c-1-0.6-2.3-0.6-3.3,0C3.7,10,3.1,12,4.1,13.6c0.3,0.5,0.7,0.9,1.2,1.2
			c1,0.6,2.3,0.6,3.3,0c0.5-0.3,1-0.8,1.3-1.3c0.3-0.6,1.1-0.8,1.7-0.5c0,0,0,0,0.1,0c0.6,0.4,0.8,1.1,0.5,1.7
			c-0.3,0.5-0.5,1.1-0.5,1.8c0,1.2,0.6,2.2,1.6,2.8c1,0.6,2.3,0.6,3.3,0c1.6-0.9,2.1-2.9,1.2-4.5c-0.3-0.5-0.7-0.9-1.2-1.2
			c-0.6-0.3-1.2-0.4-1.8-0.4c-0.7,0.1-1.3-0.5-1.4-1.2c-0.1-0.7,0.5-1.3,1.2-1.4c0.1,0,0.2,0,0.2,0c0.6,0,1.3-0.1,1.8-0.4
			c1.6-0.9,2.1-2.9,1.2-4.5c-0.3-0.5-0.7-0.9-1.2-1.2C15.4,4,14.2,4,13.1,4.6"/>
	</defs>
	<clipPath id="SVGID_2_">
		<use xlink:href="#SVGID_1_"  style="overflow:visible;"/>
	</clipPath>
	<g class="st2">
		<path class="st1" d="M10.9-3.1l15.1,15.1L10.9,27.2L-4.3,12.1L10.9-3.1z"/>
	</g>
</g>
</svg>
