<svg id="Слой_1" data-name="Слой 1" xmlns="http://www.w3.org/2000/svg" viewBox="0 0 24 24"><defs><style>.cls-1{fill:#f3ba2f;}.cls-2{fill:#282828;}</style></defs><title>zec</title><circle class="cls-1" cx="11.96" cy="12" r="10.03"/><path class="cls-2" d="M12,24a11.93,11.93,0,0,1-8.48-3.51A12,12,0,0,1,0,12,12,12,0,0,1,.94,7.33,12,12,0,0,1,7.33.94a12,12,0,1,1,9.34,22.11A11.85,11.85,0,0,1,12,24ZM12,2.66A9.35,9.35,0,1,0,18.6,5.4,9.29,9.29,0,0,0,12,2.66Z" transform="translate(0 0)"/><path class="cls-2" d="M11.28,15h5.2V17.6h-3.2c.05.75.08,1.44.13,2.19H10.72V17.63H7.52a13.06,13.06,0,0,1,.05-2.51c.08-.43.56-.8.85-1.17,1-1.2,2-2.38,3.07-3.58L12.74,9h-5V6.37h3V4.19H13.3V6.32h3.23a13.36,13.36,0,0,1-.05,2.54c-.08.42-.56.8-.88,1.17-1,1.2-2,2.37-3.07,3.57-.4.48-.79.9-1.25,1.39Z" transform="translate(0 0)"/></svg>