<svg id="Слой_1" data-name="Слой 1" xmlns="http://www.w3.org/2000/svg" viewBox="0 0 24 24"><defs><style>.cls-1{fill:#282828;}.cls-2{fill:#f3ba2f;}</style></defs><title>ada</title><circle class="cls-1" cx="12" cy="12" r="12"/><path class="cls-2" d="M11.78,2.84a.54.54,0,0,1,.72.71.55.55,0,1,1-.72-.71m-4.57.49a.43.43,0,1,1,0,.79.43.43,0,0,1,0-.79m9.36.8a.43.43,0,0,1-.08-.81c.3-.14.57.13.62.42a.47.47,0,0,1-.54.39M8.25,5.27a.66.66,0,1,1-.09,1.09.67.67,0,0,1,.09-1.09m6.58.29a.67.67,0,0,1,1.19,0,.67.67,0,1,1-1.19,0m-3.6.91A.82.82,0,0,1,12,5.7a.84.84,0,0,1,.67.44.77.77,0,0,1-.36,1.06,1,1,0,0,1-.58,0,.84.84,0,0,1-.52-.78m-6.79.62a.54.54,0,0,1,.77.63A.55.55,0,0,1,4.35,8a.56.56,0,0,1,.09-.92M19,7.09a.55.55,0,1,1,.06.94A.55.55,0,0,1,19,7.09m-5.88.77a1.32,1.32,0,1,1-.82,1.71,1.32,1.32,0,0,1,.82-1.71M9.9,7.92a1.34,1.34,0,0,1,1.73.58A1.32,1.32,0,1,1,9.29,9.71,1.34,1.34,0,0,1,9.9,7.92M6.66,9a.83.83,0,0,1,.8-.67.87.87,0,0,1,.77.77.82.82,0,0,1-.77.79A.77.77,0,0,1,6.66,9m9.57-.59a.78.78,0,1,1-.06,1.35.79.79,0,0,1,.06-1.35M8.59,10.52a1.32,1.32,0,1,1-.85,1.83,1.32,1.32,0,0,1,.85-1.83m6.13,0a1.34,1.34,0,0,1,1.5.55,1.32,1.32,0,1,1-1.5-.55m-9.78.65a.67.67,0,0,1,.84.84.66.66,0,1,1-.84-.84m13.26.7a.75.75,0,0,1,.7-.78.7.7,0,0,1,.64.69.66.66,0,0,1-1,.58.93.93,0,0,1-.38-.49M2.54,11.41a.43.43,0,1,1-.17.66A.43.43,0,0,1,2.54,11.41Zm18.56,0a.42.42,0,0,1,.62.2.41.41,0,0,1-.41.58c-.42,0-.56-.6-.21-.78M10.19,13.18a1.31,1.31,0,1,1,0,2.57,1.3,1.3,0,0,1-1.07-1.3,1.33,1.33,0,0,1,1-1.27m3.06,0a1.31,1.31,0,1,1-1,1,1.31,1.31,0,0,1,1-1m-5.91.49A.77.77,0,1,1,6.86,15a.78.78,0,0,1,.48-1.28m9,0a.78.78,0,1,1-.14,1.39.79.79,0,0,1,.14-1.39m2.52,2.52a.53.53,0,0,1,.55-.75c.19,0,.33.15.45.28a.68.68,0,0,1-.1.62.54.54,0,0,1-.9-.15M4.44,15.55a.55.55,0,0,1,.81.55.55.55,0,1,1-.81-.55m7.25.8a.77.77,0,1,1-.14,1.37.77.77,0,0,1,.14-1.37m-3.36.78a.66.66,0,0,1,.92.62.64.64,0,0,1-.72.64.74.74,0,0,1-.61-.54.75.75,0,0,1,.41-.72m6.81,0a.66.66,0,1,1-.08,1.11.67.67,0,0,1,.08-1.11m1.19,2.93a.46.46,0,0,1,.33-.69c.25.05.51.23.46.52a.44.44,0,0,1-.79.17m-9.4-.25c.07-.22.25-.45.52-.39a.43.43,0,0,1,.16.79.46.46,0,0,1-.68-.4m4.53.26a.55.55,0,0,1,.79-.32c.19.08.24.29.29.47a2.86,2.86,0,0,0-.07.28.64.64,0,0,1-.46.27.54.54,0,0,1-.55-.7"/></svg>