<svg id="Слой_1" data-name="Слой 1" xmlns="http://www.w3.org/2000/svg" viewBox="0 0 24 24"><defs><style>.cls-1{fill:#282828;}.cls-2{fill:#f3ba2f;}</style></defs><title>dash</title><circle class="cls-1" cx="12" cy="12" r="12"/><path class="cls-2" d="M19.78,8.86a1.82,1.82,0,0,0-.23-.75A1.06,1.06,0,0,0,19,7.59a1.64,1.64,0,0,0-.82-.18H7.58L6.82,9.68H16.4l-1.51,4.64H5.31l-.76,2.27H15.18a2.89,2.89,0,0,0,.92-.18,6.2,6.2,0,0,0,.93-.58,4.49,4.49,0,0,0,.76-.75,5.71,5.71,0,0,0,.47-.88l1.4-4.41a1.64,1.64,0,0,0,.12-.93Z"/><path class="cls-2" d="M10.6,11H5l-.76,2.1H9.9Z"/></svg>