<svg id="Слой_1" data-name="Слой 1" xmlns="http://www.w3.org/2000/svg" width="200px" viewBox="0 0 499.26 187.2"><defs><style>.cls-1{fill:#f2b92b;}</style></defs><title>лого</title><path class="cls-1" d="M297.6,99.58h-3.3a25.57,25.57,0,0,0-3.84-8.11c-2-2.88-3.82-4.46-5.61-4.75-.91-.13-2-.22-3.23-.29s-2.66-.09-4.25-.09H266.91v27.34h7.18a13.85,13.85,0,0,0,5.07-.74,7.89,7.89,0,0,0,3.09-2.28,10.44,10.44,0,0,0,1.61-3.29,21.23,21.23,0,0,0,.94-4.77h3.3v26.77h-3.3a21.9,21.9,0,0,0-.9-4.8,13,13,0,0,0-1.65-3.89,6.6,6.6,0,0,0-3.33-2.42,15.9,15.9,0,0,0-4.83-.65h-7.18V141a6.72,6.72,0,0,0,.57,2.83,4.32,4.32,0,0,0,2,2,15,15,0,0,0,2.86.81,21.2,21.2,0,0,0,3.34.53v3.41h-27v-3.41c.88-.06,2.05-.17,3.52-.31a9.89,9.89,0,0,0,2.86-.55A4,4,0,0,0,257,144.5a6.77,6.77,0,0,0,.59-2.95V92.43a7.66,7.66,0,0,0-.48-2.81,4,4,0,0,0-2-2,14.61,14.61,0,0,0-3.19-1.1,23.34,23.34,0,0,0-3.19-.58v-3.4H297.6Z" transform="translate(-34.72 -26.54)"/><path class="cls-1" d="M339.83,149.75q-2.07.83-3.63,1.32a11.37,11.37,0,0,1-3.54.51,8.14,8.14,0,0,1-5.48-1.76,8.24,8.24,0,0,1-2.61-5.1h-.27a21.73,21.73,0,0,1-6.13,5.27,15.93,15.93,0,0,1-7.89,1.83,10.66,10.66,0,0,1-8-3.27,11.79,11.79,0,0,1-3.14-8.53,15.75,15.75,0,0,1,.7-4.9,11.89,11.89,0,0,1,2.11-3.88,10.74,10.74,0,0,1,2.9-2.57,25.2,25.2,0,0,1,3.39-1.8c1.32-.54,4-1.55,8-3a55.46,55.46,0,0,0,8.15-3.46v-4.74a21.88,21.88,0,0,0-.24-2.4,10.76,10.76,0,0,0-1-3.36,9.58,9.58,0,0,0-2.49-3.1,7,7,0,0,0-4.55-1.31,9.38,9.38,0,0,0-3.76.74,6.83,6.83,0,0,0-2.44,1.56,14.18,14.18,0,0,0,.42,2.83,15.87,15.87,0,0,1,.42,3.45,4.28,4.28,0,0,1-1.39,3.07,5.18,5.18,0,0,1-3.85,1.39,3.5,3.5,0,0,1-3.23-1.7,7.22,7.22,0,0,1,.4-8,14.65,14.65,0,0,1,3.71-3.6,19.12,19.12,0,0,1,4.8-2.28,17.41,17.41,0,0,1,5.49-.94,32.77,32.77,0,0,1,6.44.56,11.34,11.34,0,0,1,5,2.37,10.94,10.94,0,0,1,3.4,4.82,22.19,22.19,0,0,1,1.17,7.84q0,6.87-.13,12.17t-.13,11.58a6.22,6.22,0,0,0,.59,3,5,5,0,0,0,1.82,1.88,4.37,4.37,0,0,0,2.09.48c1,0,1.93,0,2.93,0Zm-15.35-25.33c-2.49.81-4.68,1.59-6.55,2.36a25.74,25.74,0,0,0-5.23,2.88,12.56,12.56,0,0,0-3.48,3.88,10.51,10.51,0,0,0-1.27,5.31c0,2.66.63,4.61,1.91,5.86a6.64,6.64,0,0,0,4.86,1.88,9.38,9.38,0,0,0,5.49-1.66,16.61,16.61,0,0,0,4-3.92Z" transform="translate(-34.72 -26.54)"/><path class="cls-1" d="M361.91,150.62H341v-3.17l2.09-.19a7.81,7.81,0,0,0,1.87-.38,3.19,3.19,0,0,0,1.82-1.51,5.77,5.77,0,0,0,.6-2.81V113.38a6.1,6.1,0,0,0-.64-2.8,5.91,5.91,0,0,0-1.78-2.13,7.79,7.79,0,0,0-2.42-1,17.24,17.24,0,0,0-2.9-.51V103.8l15.3-1.06.62.67V142a5.75,5.75,0,0,0,.59,2.78,3.54,3.54,0,0,0,1.85,1.63,13.16,13.16,0,0,0,1.88.7,10.15,10.15,0,0,0,2.05.36Zm-5.49-66.54a7.34,7.34,0,0,1-1.65,4.77,5.05,5.05,0,0,1-4.07,2A5,5,0,0,1,346.81,89a6.66,6.66,0,0,1-1.65-4.44,6.93,6.93,0,0,1,1.65-4.6,5,5,0,0,1,3.89-2,5.21,5.21,0,0,1,4.11,1.85A6.34,6.34,0,0,1,356.42,84.08Z" transform="translate(-34.72 -26.54)"/><path class="cls-1" d="M397.24,109.41a8.51,8.51,0,0,1-1.1,4.34,3.68,3.68,0,0,1-3.39,1.9,4.9,4.9,0,0,1-3.76-1.4,4.42,4.42,0,0,1-1.3-3.07,10.17,10.17,0,0,1,.16-1.91c.1-.58.2-1.16.28-1.73a9.2,9.2,0,0,0-4.83,1.82,15,15,0,0,0-4.71,5.18v27.54a5.58,5.58,0,0,0,.59,2.73,3.64,3.64,0,0,0,1.87,1.58,10.27,10.27,0,0,0,2.84.72c1.16.16,2.16.28,3,.34v3.17H364v-3.17l2.08-.19a7.7,7.7,0,0,0,1.87-.38,3.24,3.24,0,0,0,1.83-1.51,5.89,5.89,0,0,0,.59-2.81V113.38a7.06,7.06,0,0,0-.64-2.92,5.63,5.63,0,0,0-1.78-2.3,5.75,5.75,0,0,0-2-.84,17.72,17.72,0,0,0-2.46-.36V103.8L378,102.74l.61.67v6.67h.22a20.38,20.38,0,0,1,6.07-5.9,12.07,12.07,0,0,1,6.11-2,5.73,5.73,0,0,1,4.51,2A7.68,7.68,0,0,1,397.24,109.41Z" transform="translate(-34.72 -26.54)"/><path class="cls-1" d="M446.59,99.34a22,22,0,0,1-1.92,9.42,18.37,18.37,0,0,1-5.3,6.79,22,22,0,0,1-7.34,3.93,28.13,28.13,0,0,1-8.49,1.25h-7v20.63a7.89,7.89,0,0,0,.51,2.95,3.57,3.57,0,0,0,2.09,1.94,12.05,12.05,0,0,0,2.79.62,30.35,30.35,0,0,0,3.67.34v3.41H398.83v-3.41c.7-.06,1.72-.17,3.06-.34a9.37,9.37,0,0,0,2.79-.62,3.85,3.85,0,0,0,1.91-1.82,6.85,6.85,0,0,0,.6-3.07V92.24a9.85,9.85,0,0,0-.44-3,3.38,3.38,0,0,0-2.07-2,17.41,17.41,0,0,0-3.32-.89c-1.1-.17-2.05-.29-2.84-.36v-3.4H427q8.7,0,14.14,4.58A15.16,15.16,0,0,1,446.59,99.34Zm-13.37,11.6a13.68,13.68,0,0,0,2-4.77,23.48,23.48,0,0,0,.48-4.44,27.46,27.46,0,0,0-.59-5.56,13.54,13.54,0,0,0-2-4.94,10.39,10.39,0,0,0-4-3.5,14,14,0,0,0-6.25-1.25h-6.2v30.08H421a16.14,16.14,0,0,0,7.71-1.61A11.63,11.63,0,0,0,433.22,110.94Z" transform="translate(-34.72 -26.54)"/><path class="cls-1" d="M490.44,149.75q-2.07.83-3.63,1.32a11.37,11.37,0,0,1-3.54.51,8.11,8.11,0,0,1-5.47-1.76,8.2,8.2,0,0,1-2.62-5.1h-.26a21.76,21.76,0,0,1-6.14,5.27,15.93,15.93,0,0,1-7.89,1.83,10.66,10.66,0,0,1-8-3.27,11.79,11.79,0,0,1-3.14-8.53,15.75,15.75,0,0,1,.7-4.9,12.08,12.08,0,0,1,2.11-3.88,10.79,10.79,0,0,1,2.91-2.57,25.12,25.12,0,0,1,3.38-1.8q2-.81,8-3a55.46,55.46,0,0,0,8.15-3.46v-4.74a21.88,21.88,0,0,0-.24-2.4,10.5,10.5,0,0,0-1-3.36,9.68,9.68,0,0,0-2.48-3.1,7.08,7.08,0,0,0-4.56-1.31,9.38,9.38,0,0,0-3.76.74,6.93,6.93,0,0,0-2.44,1.56,14.18,14.18,0,0,0,.42,2.83,15.87,15.87,0,0,1,.42,3.45,4.24,4.24,0,0,1-1.39,3.07,5.16,5.16,0,0,1-3.84,1.39,3.51,3.51,0,0,1-3.24-1.7,7.22,7.22,0,0,1,.4-8,14.54,14.54,0,0,1,3.72-3.6,18.88,18.88,0,0,1,4.79-2.28,17.47,17.47,0,0,1,5.5-.94,32.84,32.84,0,0,1,6.44.56,11.36,11.36,0,0,1,5,2.37,11,11,0,0,1,3.41,4.82,22.44,22.44,0,0,1,1.16,7.84q0,6.87-.13,12.17T483,141.31a6.34,6.34,0,0,0,.59,3,5.13,5.13,0,0,0,1.83,1.88,4.32,4.32,0,0,0,2.08.48c1,0,1.93,0,2.93,0Zm-15.35-25.33c-2.49.81-4.67,1.59-6.55,2.36a25.74,25.74,0,0,0-5.23,2.88,12.56,12.56,0,0,0-3.48,3.88,10.51,10.51,0,0,0-1.27,5.31q0,4,1.91,5.86a6.67,6.67,0,0,0,4.86,1.88,9.43,9.43,0,0,0,5.5-1.66,16.75,16.75,0,0,0,4-3.92Z" transform="translate(-34.72 -26.54)"/><path class="cls-1" d="M488.21,166.06a6,6,0,0,1,1.21-3.91,3.72,3.72,0,0,1,3-1.51,4.87,4.87,0,0,1,2.42.57,7,7,0,0,1,1.8,1.48,11.8,11.8,0,0,1,1.41,1.95c.49.83.89,1.51,1.18,2.05,1.47-.87,3.22-3.11,5.26-6.75a57.25,57.25,0,0,0,4.42-9.58Q504.74,139,501.35,130t-7.07-18.56a6.76,6.76,0,0,0-2.82-3.43,11.28,11.28,0,0,0-4-1.56v-3.16h19.8v3.36a13.33,13.33,0,0,0-3.17.59c-1.23.37-1.84.8-1.84,1.27a3.8,3.8,0,0,0,.19,1c.14.45.29.91.47,1.39q1.67,4.76,5.08,13.69t5.31,14.31q2-5.13,4.12-10.62t4.77-13c.21-.6.5-1.44.88-2.51a8.27,8.27,0,0,0,.58-2.76c0-.83-.67-1.61-2-2.32a11.27,11.27,0,0,0-3.81-1.32v-3.07H534v3a10.28,10.28,0,0,0-3.47,1.66,8.43,8.43,0,0,0-3.21,4q-5.24,13.24-9.3,24.13t-6.18,16a93.31,93.31,0,0,1-4.94,10.49,31.49,31.49,0,0,1-4.25,5.92,12.33,12.33,0,0,1-3.67,2.71,8.78,8.78,0,0,1-3.41.7,7.71,7.71,0,0,1-5.38-1.78A5.35,5.35,0,0,1,488.21,166.06Z" transform="translate(-34.72 -26.54)"/><path class="cls-1" d="M147.18,44.51h59.08l-3.75-3.75v59c0,4.83,7.5,4.83,7.5,0v-59A3.8,3.8,0,0,0,206.26,37H147.18c-4.83,0-4.84,7.5,0,7.5Z" transform="translate(-34.72 -26.54)"/><path class="cls-1" d="M195.43,146.83a20.89,20.89,0,0,1-1.74,8.79A18.67,18.67,0,0,1,189,162a19.82,19.82,0,0,1-6.73,3.86,24.71,24.71,0,0,1-8,1.29h-5.6v7.32h13.42v4.29H168.72v7.18a8.37,8.37,0,0,0,.28,2.32,3,3,0,0,0,1.17,1.63,6.58,6.58,0,0,0,2.54,1,28,28,0,0,0,4.43.5v3.16H152.56v-3.16c1.17-.09,2.24-.21,3.21-.34a6.86,6.86,0,0,0,2.45-.76,3.89,3.89,0,0,0,1.56-1.58,5.87,5.87,0,0,0,.55-2.77v-7.18h-6.55v-4.29h6.55v-7.32h-6.55v-4.28h6.55V140.22a5.72,5.72,0,0,0-.72-3.12,4.61,4.61,0,0,0-1.86-1.7,7.51,7.51,0,0,0-2.59-.74l-2.89-.29V131.2h25a23.11,23.11,0,0,1,7.34,1.12,17.27,17.27,0,0,1,5.75,3.15,14.07,14.07,0,0,1,3.76,4.93A15,15,0,0,1,195.43,146.83Zm-26.71-12v28H172a16.18,16.18,0,0,0,5.63-.94,12,12,0,0,0,4.29-2.7,11.83,11.83,0,0,0,2.74-4.33,16.52,16.52,0,0,0,1-5.82,23.12,23.12,0,0,0-.59-5.29,13.09,13.09,0,0,0-2-4.55,10,10,0,0,0-3.71-3.17,12.48,12.48,0,0,0-5.74-1.19Z" transform="translate(-34.72 -26.54)"/><path class="cls-1" d="M176.06,206.88c-22.55,0-41-19.35-42-43.66l5.38,5.26a3.5,3.5,0,0,0,5.24-.31,4.31,4.31,0,0,0-.29-5.72l-11.05-10.8a3.48,3.48,0,0,0-4.95,0l-11.05,10.8a4.31,4.31,0,0,0-.29,5.72,3.58,3.58,0,0,0,2.77,1.35,3.48,3.48,0,0,0,2.47-1l5.49-5.35c0,.69-.06,1.38-.06,2.08,0,26.8,19.92,48.54,44.48,48.54,20.36,0,37.51-14.93,42.8-35.29C208.67,195.14,193.62,206.88,176.06,206.88Z" transform="translate(-34.72 -26.54)"/><path class="cls-1" d="M228.79,157a3.51,3.51,0,0,0-5.25-.31L218.06,162c0-.69.06-1.38.06-2.08,0-26.8-19.92-48.53-44.49-48.53-20.36,0-37.51,14.92-42.79,35.28,6.3-16.68,21.34-28.42,38.91-28.42,22.55,0,40.95,19.35,42,43.66l-5.38-5.26a3.51,3.51,0,0,0-5.25.31,4.31,4.31,0,0,0,.29,5.72l11.05,10.8a3.48,3.48,0,0,0,5,0l11-10.8A4.32,4.32,0,0,0,228.79,157Z" transform="translate(-34.72 -26.54)"/><path class="cls-1" d="M119,198.51H59.89l3.75,3.75v-59c0-4.82-7.5-4.83-7.5,0v59A3.81,3.81,0,0,0,59.89,206H119c4.83,0,4.84-7.5,0-7.5Z" transform="translate(-34.72 -26.54)"/><path class="cls-1" d="M94.71,122.05c-22.55,0-40.95-19.35-42-43.66l5.38,5.26a3.5,3.5,0,0,0,5.24-.31A4.31,4.31,0,0,0,63,77.62L52,66.82a3.48,3.48,0,0,0-5,0L36,77.61a4.32,4.32,0,0,0-.29,5.73,3.58,3.58,0,0,0,2.77,1.35,3.52,3.52,0,0,0,2.47-1l5.49-5.36c0,.7-.06,1.39-.06,2.09,0,26.8,19.92,48.53,44.48,48.53,20.36,0,37.51-14.92,42.8-35.28C127.32,110.31,112.27,122.05,94.71,122.05Z" transform="translate(-34.72 -26.54)"/><path class="cls-1" d="M147.44,72.12a3.51,3.51,0,0,0-5.25-.32l-5.48,5.36c0-.69.06-1.38.06-2.08,0-26.81-19.92-48.54-44.49-48.54-20.36,0-37.51,14.93-42.79,35.29C55.79,45.15,70.83,33.4,88.4,33.4c22.55,0,40.95,19.36,42,43.66l-5.38-5.25a3.5,3.5,0,0,0-5.25.31,4.31,4.31,0,0,0,.29,5.72l11,10.8a3.48,3.48,0,0,0,5,0l11.05-10.8A4.32,4.32,0,0,0,147.44,72.12Z" transform="translate(-34.72 -26.54)"/><path class="cls-1" d="M101.14,67.94c0,6.9-10,6-13.11,6l0-12.2C91.23,61.79,101.16,60.74,101.14,67.94Zm2.53,19c0,7.59-11.92,6.68-15.72,6.66l0-13.45C91.8,80.15,103.7,79,103.67,86.92Zm7.92-21.67C111,58,105.26,55.56,98,54.84l0-10-5.6,0,0,9.77c-1.48,0-3,0-4.48.05l0-9.84-5.6,0,0,10c-1.22,0-2.41,0-3.57,0v0l-7.72,0,0,6.53s4.14-.07,4.07,0A3,3,0,0,1,78.33,64l0,11.43a4.84,4.84,0,0,1,.59,0h-.59l-.06,16a2.06,2.06,0,0,1-2.11,2c.07.07-4.07,0-4.07,0l-1.14,7.29,7.29,0c1.36,0,2.69,0,4,.06l0,10.15,5.6,0,0-10c1.54,0,3,.06,4.48.06l0,10,5.6,0,0-10.13c9.41-.55,16-3.11,16.87-12.75.69-7.76-2.65-11.24-8-12.66,3.25-1.79,5.29-5,4.84-10.26Z" transform="translate(-34.72 -26.54)"/></svg>