<svg id="Слой_1" data-name="Слой 1" xmlns="http://www.w3.org/2000/svg" viewBox="0 0 24 24"><defs><style>.cls-1{fill:#282828;}.cls-2{fill:#f3ba2f;}</style></defs><title>ht</title><circle class="cls-1" cx="12" cy="12" r="12"/><path class="cls-2" d="M13.88,8.59a7.07,7.07,0,0,0-2.07-5.16s-.07,0-.06.06C11.67,8.14,9.29,9.4,8,11.1a5.71,5.71,0,0,0,2.64,9c1.6.45-.37-.78-.62-3.39-.31-3.14,3.87-5.54,3.87-8.14Z"/><path class="cls-2" d="M15.25,10.17s-.05,0-.06,0a8.81,8.81,0,0,1-1.41,3C11.21,17.08,12.67,19,13.5,20c.48.58,0,0,1.19-.6a5.4,5.4,0,0,0,2.58-4.17,6.05,6.05,0,0,0-2-5Z"/></svg>