<svg id="Слой_1" data-name="Слой 1" xmlns="http://www.w3.org/2000/svg" viewBox="0 0 24 24"><defs><style>.cls-1{fill:#282828;}.cls-2{fill:#f3ba2f;}</style></defs><title>kcs</title><circle class="cls-1" cx="12" cy="12" r="12"/><g id="layer1"><g id="g6382"><path id="rect6336" class="cls-2" d="M6.52,5.52A1.32,1.32,0,0,1,7.84,6.84V17.15a1.33,1.33,0,0,1-2.65,0V6.84A1.33,1.33,0,0,1,6.52,5.52Z"/><path id="rect6338" class="cls-2" d="M15.08,4.72a1.32,1.32,0,0,1,0,1.87L7.74,13.84A1.32,1.32,0,1,1,5.88,12l7.33-7.25a1.32,1.32,0,0,1,1.87,0Z"/><path id="rect6340" class="cls-2" d="M15.08,19.27a1.33,1.33,0,0,0,0-1.88L7.74,10.15a1.31,1.31,0,0,0-1.87,0,1.32,1.32,0,0,0,0,1.87l7.33,7.25A1.32,1.32,0,0,0,15.08,19.27Z"/><path id="rect6361-4" class="cls-2" d="M19.08,13.7a1.34,1.34,0,0,1,0,1.88l-3.85,3.83a1.33,1.33,0,1,1-1.87-1.88L17.2,13.7A1.34,1.34,0,0,1,19.08,13.7Z"/><path id="rect6378" class="cls-2" d="M19.08,10.3a1.34,1.34,0,0,0,0-1.88L15.22,4.59a1.33,1.33,0,1,0-1.87,1.88L17.2,10.3A1.33,1.33,0,0,0,19.08,10.3Z"/><circle id="path6380" class="cls-2" cx="14.29" cy="12" r="1.34"/></g></g></svg>