<?xml version="1.0" encoding="iso-8859-1"?>
<!-- Generator: Adobe Illustrator 19.0.0, SVG Export Plug-In . SVG Version: 6.00 Build 0)  -->
<svg version="1.1" id="Capa_1" xmlns="http://www.w3.org/2000/svg" xmlns:xlink="http://www.w3.org/1999/xlink" x="0px" y="0px"
	 viewBox="0 0 512.003 512.003" style="enable-background:new 0 0 512.003 512.003;" xml:space="preserve">
<g transform="matrix(1.25 0 0 -1.25 0 45)">
	<path style="fill:#4289C1;" d="M308.531-268.807H110.585v-104.795h244.521v58.219C355.107-289.661,334.252-268.807,308.531-268.807
		"/>
	<path id="SVGCleanerId_0" style="fill:#2A6797;" d="M308.531-373.602h-11.644v46.576h11.644V-373.602z"/>
	<path style="fill:#F7DECE;" d="M98.942-23.559v-128.816c0-57.87,46.913-104.783,104.795-104.783s104.795,46.913,104.795,104.783
		v125.184L98.942-23.559z"/>
	<path style="fill:#662113;" d="M157.161-140.724c-6.427,0-11.644,5.217-11.644,11.644v11.644c0,6.427,5.217,11.644,11.644,11.644
		c6.427,0,11.644-5.217,11.644-11.644v-11.644C168.805-135.507,163.588-140.724,157.161-140.724"/>
	<path style="fill:#C1694F;" d="M215.38-181.478h-23.288c-3.214,0-5.822,2.608-5.822,5.822s2.608,5.822,5.822,5.822h23.288
		c3.214,0,5.822-2.608,5.822-5.822S218.594-181.478,215.38-181.478"/>
	<g>
		<path style="fill:#F7DECE;" d="M120.45-114.12c0-18.397-9.327-33.313-20.819-33.313c-11.504,0-20.819,14.916-20.819,33.313
			s9.315,33.313,20.819,33.313C111.123-80.807,120.45-95.722,120.45-114.12"/>
		<path style="fill:#F7DECE;" d="M328.666-114.12c0-18.397-9.315-33.313-20.819-33.313s-20.819,14.916-20.819,33.313
			s9.315,33.313,20.819,33.313S328.666-95.722,328.666-114.12"/>
	</g>
	<path style="fill:#292F33;" d="M203.736,36C122.008,36,85.68-18.54,85.68-63.998c0-45.446,15.638-58.057,18.164-45.446
		c9.082,45.446,36.317,59.407,36.317,59.407c54.493-45.457,45.411-9.094,45.411-9.094c54.493-54.54,27.247,0,27.247,0
		c18.164-18.188,72.646-18.188,72.646-18.188s9.082-13.95,18.164-32.125s18.164,0,18.164,45.446
		C321.793-18.54,276.382,36,203.736,36"/>
	<path style="fill:#F7DECE;" d="M168.805-233.875v-46.575c0-19.294,15.638-34.932,34.932-34.932s34.932,15.638,34.932,34.932v46.575
		H168.805z"/>
	<path style="fill:#2A6797;" d="M212.283-168.503l21.273-8.046c0,0-76.023-160.057-86.316-174.914
		c-10.293-14.869-21.774-23.928-53.213-20.505L212.283-168.503z"/>
	<g>
		<path id="SVGCleanerId_0_1_" style="fill:#2A6797;" d="M308.531-373.602h-11.644v46.576h11.644V-373.602z"/>
	</g>
	<path style="fill:#2A6797;" d="M168.622-284.999c0,0-27.468-51.489-33.36-62.12c-3.214-5.787-15.195-23.392-27.037-23.392
		c0,0,25.768-1.409,36.341,19.585c14.962,29.727,22.787,44.095,28.236,54.098c0,0-1.455,3.83-2.364,5.647
		C169.077-288.457,168.622-284.999,168.622-284.999"/>
	<path style="fill:#E0AA94;" d="M151.487-45.786c11.003,3.389,18.607-5.915,20.61-13.914l3.307-13.274l8.803,25.093
		c4.25,12.133,17.547,18.526,29.68,14.264l43.944-15.416c12.145-4.25,18.526-17.547,14.276-29.68l-30.833-87.899
		c0,0-3.854-10.991-14.846-7.138l-65.927,23.136l-7.126,14.834l4.017,11.457L143.115-66.92
		C141.112-58.91,143.604-48.208,151.487-45.786"/>
	<path style="fill:#662113;" d="M275.426-145.05c-0.303,0.676-6.94,14.997-20.342,17.803l-5.705-16.255
		c0.431,0.012,0.734,0.104,1.176,0.104c13.542,0,20.505-4.914,20.656-5.03c0.489-0.361,1.083-0.547,1.665-0.547
		c0.617,0,1.235,0.21,1.735,0.605C275.601-147.577,275.938-146.215,275.426-145.05"/>
	<path style="fill:#4F140B;" d="M250.554-126.653c-16.499,0-24.533-17.64-24.872-18.397c-0.512-1.152-0.175-2.503,0.815-3.295
		c0.967-0.792,2.375-0.827,3.4-0.081c0.07,0.058,6.73,4.622,19.48,4.937l5.694,16.243
		C253.629-126.944,252.161-126.653,250.554-126.653"/>
	<path style="fill:#C1694F;" d="M238.607-226.467c0,0-6.521,13.006-19.539,19.574c-2.865-5.985-6.009-12.552-9.385-19.574H238.607z"
		/>
	<path style="fill:#E0AA94;" d="M212.283-168.503l-22.123-37.656l-11.935-20.307l-13.495-22.985l4.075-30.996
		c0-6.916,2.073-13.32,5.543-18.747c11.411,23.125,24.417,50.01,35.339,72.728c3.377,7.021,6.521,13.588,9.385,19.574
		c8.628,18.013,14.485,30.344,14.485,30.344L212.283-168.503z"/>
	<path style="fill:#894935;" d="M219.072-206.893c-4.39,2.224-9.525,3.714-15.393,3.714c-5.1,0-9.536-1.246-13.519-2.992
		l-11.935-20.295h31.45C213.064-219.445,216.208-212.878,219.072-206.893"/>
	<path style="fill:#F7DECE;" d="M139.849-43.577c7.999,1.991,16.104-2.876,18.106-10.875l3.307-13.274l8.791,25.093
		c4.262,12.133,17.559,18.526,29.692,14.264l43.944-15.416c12.133-4.262,18.526-17.547,14.264-29.68l-30.833-87.899
		c0,0-3.854-10.991-14.834-7.138l-65.927,23.125l-7.138,14.846l4.029,11.457l-14.287,57.392
		C126.972-53.672,131.85-45.568,139.849-43.577"/>
	<g>
		<path style="fill:#E0AA94;" d="M212.399-94.774l10.991-3.854l19.271,54.936l-10.991,3.854L212.399-94.774z"/>
		<path style="fill:#E0AA94;" d="M179.437-83.21l10.991-3.854l19.271,54.936l-10.991,3.854L179.437-83.21z"/>
	</g>
	<path style="fill:#4289C1;" d="M160.402-301.993c0,0-20.015-41.673-24.522-51.42c-8.011-17.279-25.29-20.19-25.29-20.19
		c-93.151,0-42.174,97.145-42.174,97.145l74.882,137.934l76.163-30.041L160.402-301.993z"/>
</g>
<g>
</g>
<g>
</g>
<g>
</g>
<g>
</g>
<g>
</g>
<g>
</g>
<g>
</g>
<g>
</g>
<g>
</g>
<g>
</g>
<g>
</g>
<g>
</g>
<g>
</g>
<g>
</g>
<g>
</g>
</svg>
