<svg height="512" viewBox="0 0 60 60" width="512" xmlns="http://www.w3.org/2000/svg"><g id="008---No-Cellphones" fill="none" fill-rule="evenodd"><g id="Icons" transform="translate(1 1)"><g fill-rule="nonzero"><path id="Shape" d="m58 29c-.0004652 7.9495901-3.2642918 15.550451-9.0282593 21.0251804-5.7639675 5.4747293-13.5226503 8.3432641-21.4617407 7.9348196h-.02c-15.335-.395-27.49-13.45-27.49-28.96s12.155-28.565 27.49-28.96h.02c7.9390904-.40844447 15.6977732 2.46009026 21.4617407 7.93481964 5.7639675 5.47472936 9.0277941 13.07559026 9.0282593 21.02518036z" fill="#c81e1e"/><path id="Shape" d="m55 29c-.0003518 15.4291761-12.0817537 28.1566188-27.49 28.96h-.02c-15.335-.395-27.49-13.45-27.49-28.96s12.155-28.565 27.49-28.96h.02c15.4082463.80338124 27.4896482 13.5308239 27.49 28.96z" fill="#f44335"/><path id="Shape" d="m54 29c0 14.885-12.906 26.037-26.5 24.95-13.1983118-.7930491-23.49582523-11.7278837-23.49582523-24.95s10.29751343-24.15695086 23.49582523-24.95c13.629-1.09 26.5 10.091 26.5 24.95z" fill="#cfd8dc"/><ellipse id="Oval" cx="27.5" cy="29" fill="#f5f5f5" rx="23.5" ry="24.95"/><path id="Shape" d="m39.73 18.25c-1.313 20.589-.93 14.936-1.57 25.15-.2006422 1.4914096-1.4751584 2.6034036-2.98 2.6h-12.36c-1.5854044.0031826-2.899594-1.227775-3-2.81-1.454-23.19-1.291-17.222-.85-27.46.7434823-1.0848182 1.9748608-1.7323212 3.29-1.73h13.48c1.1038989.0006016 2.1584737.4573776 2.9140424 1.2621813.7555687.8048038 1.1449515 1.8860778 1.0759576 2.9878187z" fill="#607d8b"/><path id="Shape" d="m33 9c-1.1027482.00438474-1.9956153.89725182-2 2v3h4v-3c0-1.1045695-.8954305-2-2-2z" fill="#37474f"/><path id="Shape" d="m31.24 28h2.86c.5116502-.0025525.9388407-.3909075.99-.9l.8-8c.0281785-.2803371-.0632114-.5595542-.251692-.7689772-.1884807-.2094229-.4565617-.3296179-.738308-.3310228h-11.8c-.5014568.0007593-.9248111.3727979-.99.87z" fill="#f5f5f5"/></g><path id="Shape" d="m44.88 50.12-38-38 1.5-2.61 2.63-1.74 38.23 38.23c-1.5239872 1.296583-2.9792981 2.671785-4.36 4.12z" fill="#f44335"/></g><g id="Layer_2" fill="#000" fill-rule="nonzero"><path id="Shape" d="m30 60c16.5685425 0 30-13.4314575 30-30s-13.4314575-30-30-30-30 13.4314575-30 30c.01873704 16.5607751 13.4392249 29.981263 30 30zm0-58c15.463973 0 28 12.536027 28 28s-12.536027 28-28 28-28-12.536027-28-28c.01763454-15.4566626 12.5433374-27.98236546 28-28z"/><path id="Shape" d="m24 35h1c.5522847 0 1-.4477153 1-1s-.4477153-1-1-1h-1c-.5522847 0-1 .4477153-1 1s.4477153 1 1 1z"/><path id="Shape" d="m26 37h-2c-.5522847 0-1 .4477153-1 1s.4477153 1 1 1h2c.5522847 0 1-.4477153 1-1s-.4477153-1-1-1z"/><path id="Shape" d="m29 39c.476906-.0027573.8854994-.3419063.9760345-.810148.0905351-.4682418-.1621856-.9352567-.6036909-1.1155898-.4415053-.1803332-.9489167-.0237948-1.2120878.3739337s-.2088568.9259524.1297442 1.2618041c.190164.1849909.4447023.2889572.71.29z"/><path id="Shape" d="m26 41h-2c-.5522847 0-1 .4477153-1 1s.4477153 1 1 1h2c.5522847 0 1-.4477153 1-1s-.4477153-1-1-1z"/><path id="Shape" d="m31 41h-2c-.5522847 0-1 .4477153-1 1s.4477153 1 1 1h2c.5522847 0 1-.4477153 1-1s-.4477153-1-1-1z"/><path id="Shape" d="m48.513 46.687c.2000924.2016636.4765139.3087047.7602398.2943944s.5479743-.1486213.7267602-.3693944c8.5517663-10.3393191 7.8514737-25.483039-1.618-34.989-.3923789-.3789722-1.0160848-.3735524-1.4018186.0121814s-.3911536 1.0094397-.0121814 1.4018186c8.4451525 8.4794481 9.3675766 21.8793204 2.164 31.436l-8.441-8.441 1.043-16.717c.0881953-1.3325876-.364172-2.6445166-1.2549534-3.6395425-.8907815-.9950258-2.1448573-1.5892377-3.4790466-1.6484575v-2.027c0-1.6568542-1.3431458-3-3-3s-3 1.3431458-3 3v2h-7.74c-1.2296244-.0009566-2.4162542.4523986-3.332 1.273l-4.408-4.408c6.8387824-5.16057153 15.9062442-6.29414708 23.805-2.976.3283271.14094129.7069051.096016.9931274-.11785296.2862222-.21386895.4366048-.56418978.3945-.91900002-.0421048-.35481023-.2703003-.66020575-.5986274-.80114702-8.9562058-3.76682447-19.264821-2.23181055-26.735 3.981-.2110037.1812964-.3369494.4422949-.3475756.7202841-.0106263.2779893.0950276.5478407.2915756.7447159zm-23.858-26.687h11.245l-.8 8h-2.445zm8.345-8c0-.5522847.4477153-1 1-1s1 .4477153 1 1v2h-2zm-9.74 4h13.48c.8285897-.0014837 1.6207186.3405951 2.1877538.9447756s.8582319 1.416394.8042462 2.2432244l-.932 14.958-4.146-4.146h.446c1.0271966.0025819 1.887396-.7774478 1.985-1.8l.8-8c.0564384-.5615374-.1269981-1.1207826-.5050652-1.5397991-.3780672-.4190165-.91557-.6587972-1.4799348-.6602009h-11.8c-.3943838.0001944-.7797707.1178645-1.107.338l-1.641-1.638c.5342401-.4498497 1.2095935-.6976209 1.908-.7z"/><path id="Shape" d="m10.108 43.41c-5.46940864-8.0560027-5.49552957-18.6270661-.066-26.71l8.6 8.6 1.176 18.954c.1389991 2.1072646 1.8881564 3.7457877 4 3.747h12.362c1.3498988-.0070421 2.6056183-.6929709 3.341-1.825l3.784 3.784c-8.0843818 5.4299266-18.6569568 5.4034101-26.714-.067-.2957352-.2071657-.6801831-.2388152-1.0058166-.0828032-.3256336.156012-.5418732.4754526-.5657398.8357404-.0238665.3602878.1483473.7054607.4505564.9030628 9.1115018 6.1830112 21.1368155 5.9270766 29.977-.638.2370651-.171835.3869129-.4389335.4100016-.7308136.0230888-.2918802-.0829013-.5792164-.2900016-.7861864l-34.96-34.96c-.2070879-.206633-.4942736-.3122216-.78589114-.2889461-.29161759.0232756-.55841893.1730809-.73010886.4099461-6.5662813 8.8396617-6.8226294 20.8655569-.639 29.977.31329217.4472337.92742016.5604625 1.37960692.2543627.45218678-.3060999.57522238-.9183386.27639308-1.3753627zm26.072 2.59h-12.36c-1.0550895-.0012904-1.9290306-.8192993-2-1.872l-1.038-16.692 13.564 13.564h-.346c-.5522847 0-1 .4477153-1 1s.4477153 1 1 1h2.346l1.705 1.7c-.2943845.7788949-1.0383404 1.2958071-1.871 1.3z"/></g></g></svg>