<svg id="Слой_1" data-name="Слой 1" xmlns="http://www.w3.org/2000/svg" viewBox="0 0 24 24"><defs><style>.cls-1{fill:#282828;}.cls-2{fill:#f3ba2f;}</style></defs><title>trx</title><circle class="cls-1" cx="12" cy="12" r="12"/><path class="cls-2" d="M20.12,8.69,18,7.2l-.05,0A1.06,1.06,0,0,0,17.67,7h0L12,5.61,6.86,4.38l-.14,0a1.43,1.43,0,0,0-.52-.07.35.35,0,0,0-.14.06l0,0a.63.63,0,0,0-.13.21v.24l3.24,9,2.5,6.94a.43.43,0,0,0,.38.28h0a.44.44,0,0,0,.39-.22l3.12-4.54L17.82,13l.93-1.37,1.56-2.27,0,0v0a.6.6,0,0,0-.22-.57m-3.65,1.65-2.23,1.17,1.32-1.41,1.67-1.8h0l.17-.19L17.55,8l.87.6L19,9l-2.57,1.33m-1.88-.19L12.87,12,9.49,7.93,8,6.11H8c-.12-.13-.23-.28-.34-.41l-.22-.27,1.37.34L10,6.06l6.85,1.67-2.27,2.42m-2,7.67c.05-.41.09-.84.13-1.25s.07-.68.11-1C12.9,15,13,14.5,13,14v-.1c0-.34.08-.69.11-1l.14-.06.17-.09,2.73-1.42,2.77-1.45-2.51,3.65c-.7,1-1.42,2.09-2.14,3.13l-.86,1.25c-.32.46-.64.93-.95,1.4,0-.48.08-.95.13-1.42M7.13,6.36c0-.14-.11-.29-.15-.42l3.17,3.82,1.62,2,.31.38c.14.16.27.33.42.49-.05.4-.09.81-.13,1.21l-.09.83h0c0,.18,0,.35-.06.53s-.09.78-.09.78v0c-.07.79-.16,1.6-.24,2.37,0,.33-.07.66-.1,1l-.07-.18-.17-.48-.42-1.17c-1.33-3.71-2.67-7.41-4-11.13" transform="translate(0)"/></svg>