<svg id="Слой_1" data-name="Слой 1" xmlns="http://www.w3.org/2000/svg" viewBox="0 0 24 24"><defs><style>.cls-1{fill:#282828;}.cls-2{fill:#f3ba2f;}</style></defs><title>xlm</title><circle class="cls-1" cx="12" cy="12" r="12"/><path class="cls-2" d="M9.1,16.67c.77.54,2.18-.14,3.19-1.53l0-.05a1.77,1.77,0,0,0-.42-2.44,1.72,1.72,0,0,0-2.42.42l0,.06c-1,1.42-1.12,3-.35,3.54"/><path class="cls-1" d="M9.89,15.62c.53.37,1.53-.11,2.23-1.06l0,0a1.17,1.17,0,0,0-.26-1.65l0,0a1.24,1.24,0,0,0-1.7.3l0,0c-.68,1-.8,2.05-.26,2.43"/><path class="cls-2" d="M6.55,11.1c-.08.11-.12.26.1.19a4.21,4.21,0,0,1,3.7.73c2.24,1.55,2.06-2.47,2.06-2.47-.53-.36-3.2-1.85-5.86,1.55m8.49,6c0,.23.14.14.21,0,2.3-3.59,0-5.57-.51-5.94,0,0-3.82,1.16-1.62,2.72A4.15,4.15,0,0,1,15,17.15"/><path class="cls-1" d="M12.72,14.57c.43.32.7.37,1,0s2-2.35,3.65-4.5.65-5.86.45-6h0c-.2-.15-3.87.1-5.25,2.47S10,11.18,9.77,11.62s-.11.69.33,1l1.31,1,1.31,1"/><path class="cls-2" d="M13.21,15h0a1.18,1.18,0,0,1-.69-.3l-1.33-.93,0,0-.88-.62-.48-.34a1.26,1.26,0,0,1-.51-.55.87.87,0,0,1,.11-.74l.28-.5c.49-.89,1.51-2.73,2.64-4.59a4.76,4.76,0,0,1,1.84-1.67A7.7,7.7,0,0,1,16.28,4a6.9,6.9,0,0,1,1.13-.15c.51,0,.6,0,.64.06h0s.13.1.28.59a8,8,0,0,1,.23,1.11,6.14,6.14,0,0,1-.94,4.58c-1.36,1.7-2.74,3.28-3.41,4l-.38.44a1,1,0,0,1-.3.26.63.63,0,0,1-.33.09M17.65,4.28a7.67,7.67,0,0,0-2,.35,5.14,5.14,0,0,0-2.95,2c-1.12,1.86-2.14,3.7-2.63,4.58l-.29.51c-.11.2-.1.3-.08.36a1,1,0,0,0,.36.36l.48.34.88.62,0,0,1.33.94c.42.3.55.27.76,0L13.9,14c.66-.76,2-2.34,3.4-4a5.21,5.21,0,0,0,.91-3.48,7.05,7.05,0,0,0-.41-2.17h-.15"/><path class="cls-1" d="M14.06,9.25a1.54,1.54,0,1,0-.37-2.14,1.54,1.54,0,0,0,.37,2.14"/><path class="cls-2" d="M14.94,9.75a1.76,1.76,0,1,1,1-3.19h0A1.76,1.76,0,0,1,16.38,9a1.73,1.73,0,0,1-1.13.72l-.31,0m0-3.08-.23,0a1.35,1.35,0,0,0-.85.54A1.32,1.32,0,1,0,16,8.76h0a1.33,1.33,0,0,0-.32-1.85A1.37,1.37,0,0,0,15,6.67"/><path class="cls-2" d="M5.26,20.19,7.7,16.76l.17.13L5.43,20.32Zm1.4-.43,1.42-2,.18.12-1.43,2Z"/></svg>