<svg id="Слой_1" data-name="Слой 1" xmlns="http://www.w3.org/2000/svg" viewBox="0 0 24 24"><defs><style>.cls-1{fill:#282828;}.cls-2{fill:#f3ba2f;}</style></defs><title>xmr</title><circle class="cls-1" cx="12" cy="12" r="12"/><path class="cls-2" d="M11.93,3.56A8.41,8.41,0,0,0,3.53,12,8.55,8.55,0,0,0,4,14.61H6.47V7.54L11.93,13l5.46-5.46v7.07h2.52A8.25,8.25,0,0,0,20.33,12a8.4,8.4,0,0,0-8.4-8.4"/><path class="cls-2" d="M10.68,14.26,8.3,11.87v4.45H4.76a8.39,8.39,0,0,0,14.35,0H15.57V11.87l-2.38,2.39-1.26,1.25Z"/></svg>