<svg id="Слой_1" data-name="Слой 1" xmlns="http://www.w3.org/2000/svg" viewBox="0 0 24 24"><defs><style>.cls-1{fill:#282828;}.cls-2{fill:#f3ba2f;}</style></defs><title>zrx</title><circle class="cls-1" cx="12" cy="12" r="12"/><path class="cls-2" d="M12,3.6h.51c.31,0,.63,0,.94.08a8.51,8.51,0,0,1,3.06,1.06c-.22.18-.45.33-.67.49-1.49,1.06-3,2.14-4.47,3.2-.12-.1-.22-.22-.34-.32-.34-.33-.67-.67-1-1-.13,0-.24.12-.36.18A5.4,5.4,0,0,0,7.69,9.12c-.63-.8-1.23-1.61-1.83-2.43l-.05-.08a10.4,10.4,0,0,1,.72-.76,8.44,8.44,0,0,1,4.71-2.19C11.48,3.63,11.72,3.63,12,3.6ZM16,6.74c.53-.4,1.06-.79,1.6-1.17A8.27,8.27,0,0,1,20.1,9.05a8.39,8.39,0,0,1,.2,5.33,9,9,0,0,1-.75,1.75.57.57,0,0,1-.12-.15l-3.06-4c-.19-.26-.4-.52-.59-.79.44-.47.91-.94,1.36-1.41A5.48,5.48,0,0,0,15.83,8a5.85,5.85,0,0,0-.7-.53c.29-.25.6-.48.9-.71M4.43,8.92A7.82,7.82,0,0,1,5,7.83L5.83,9l2.76,3.62a2.15,2.15,0,0,1,.18.24L7.36,14.28a5.41,5.41,0,0,0,.42.74,4.83,4.83,0,0,0,.84,1,5.54,5.54,0,0,0,.73.57c-.22.19-.45.36-.68.54L7.44,18c-.2.14-.39.29-.59.42a8.34,8.34,0,0,1-2.71-4.22,9,9,0,0,1-.3-2v-.42l0-.44A8.18,8.18,0,0,1,4.43,8.92Zm11.81,6.69a5,5,0,0,0,.56-.73c.19.23.37.47.55.71.45.59.89,1.19,1.32,1.79a4.65,4.65,0,0,1-.42.48,8.34,8.34,0,0,1-4.51,2.4,9.9,9.9,0,0,1-1.22.14h-.61l-.54,0A8.18,8.18,0,0,1,8,19.26l1.05-.79,4-3c.23.21.44.43.66.65s.51.51.78.75a5.38,5.38,0,0,0,1.72-1.27"/></svg>